<svg width="74" height="85" viewBox="0 0 74 85" fill="none" xmlns="http://www.w3.org/2000/svg">
<path d="M68.1528 18.0502L41.9336 20.7589C40.932 20.8624 40.2458 21.4881 40.4009 22.1565L42.8731 32.8139C43.0281 33.4823 43.9657 33.9402 44.9673 33.8368L71.1865 31.128C72.188 31.0245 72.8743 30.3988 72.7192 29.7304L70.247 19.073C70.0919 18.4047 69.1543 17.9467 68.1528 18.0502Z" stroke="#091E42" stroke-linecap="round" stroke-linejoin="round"/>
<path d="M40.8008 23.8769L70.6467 20.7937" stroke="#091E42" stroke-linecap="round" stroke-linejoin="round"/>
<path d="M68.3134 24.2898L63.4922 24.7878L64.5669 29.4208L69.3881 28.9227L68.3134 24.2898Z" stroke="#091E42" stroke-linecap="round" stroke-linejoin="round"/>
<path d="M65.4493 25.5464C66.4679 24.7371 68.1413 25.2766 67.7492 27.7879L69.2407 28.2816L69.3862 28.9128L64.5682 29.4118L64.3701 28.5675L66.189 28.0955C66.189 28.0955 64.4914 26.3098 65.4493 25.5464Z" stroke="#091E42" stroke-linecap="round" stroke-linejoin="round"/>
<path d="M54.9922 31.211C54.9922 31.211 58.4764 31.2299 57.478 30.7659C56.4796 30.302 56.3301 29.8326 57.1789 29.8245C58.0277 29.8164 59.4505 30.9035 59.3373 30.2399C59.2241 29.5763 59.8385 30.0079 59.9557 30.0511C60.073 30.0943 61.0794 29.8245 61.1279 29.9027C61.1764 29.981 61.1077 30.1995 64.3858 29.8623" stroke="#091E42" stroke-linecap="round" stroke-linejoin="round"/>
<path d="M43.3311 25.9456L57.9468 24.4351" stroke="#091E42" stroke-linecap="round" stroke-linejoin="round"/>
<path d="M43.5908 27.0518L52.2002 26.1616" stroke="#091E42" stroke-linecap="round" stroke-linejoin="round"/>
<path d="M44.043 29.0018L56.0517 27.761" stroke="#091E42" stroke-linecap="round" stroke-linejoin="round"/>
<path d="M47.7695 21.7081L62.4258 20.1921" stroke="#091E42" stroke-linecap="round" stroke-linejoin="round"/>
<path opacity="0.2" d="M20.6515 42.1926C20.6515 42.1926 19.2126 53.8131 21.2942 56.6319C23.3758 59.4507 24.4186 78.7104 23.4849 81.1327C23.4849 81.1327 30.1865 82.2602 32.8381 80.658C35.4896 79.0557 39.568 80.5986 46.2858 79.0395C53.0035 77.4804 48.1572 42.875 48.1572 42.875L48.3633 30.2861L37.2843 23.699L20.6515 42.1926Z" fill="#091E42" fill-opacity="0.7"/>
<path d="M29.5849 47.7814C29.5431 47.8645 29.4756 47.9407 29.3868 48.0053C27.956 48.9089 21.8485 49.9124 16.6021 50.6353C12.2569 51.2368 8.51809 51.6441 8.51809 51.6441C8.51809 51.6441 5.6402 35.6834 5.6402 34.0056C5.6402 32.3278 1 5.16467 1 5.16467L12.1235 4.84368L26.8808 4.41748C26.8808 4.41748 26.9697 5.14309 27.1193 6.41088C28.0934 14.487 31.4402 44.5957 29.5849 47.7814Z" fill="white"/>
<path opacity="0.2" d="M29.5854 47.7814L16.6025 49.5536L11.6996 50.2252C10.3698 49.354 9.35528 49.3378 9.35528 49.3378L8.95108 46.8966L8.31649 42.9017L2.73047 7.75417C3.94306 7.1958 4.54128 5.97387 4.54128 5.97387L12.0189 5.79314L24.9735 5.47754L27.1117 6.40006C28.0939 14.487 31.4406 44.5957 29.5854 47.7814Z" fill="#091E42" fill-opacity="0.7"/>
<path d="M29.5854 47.7814L16.6025 49.5536L11.6996 50.2252C10.3698 49.354 9.35528 49.3378 9.35528 49.3378L8.95108 46.8966L8.31649 42.9017L2.73047 7.75417C3.94306 7.1958 4.54128 5.97387 4.54128 5.97387L12.0189 5.79314L24.9735 5.47754L27.1117 6.40006C28.0939 14.487 31.4406 44.5957 29.5854 47.7814Z" stroke="#091E42" stroke-linecap="round" stroke-linejoin="round"/>
<path d="M10.042 37.4341L14.375 37.4287L14.379 38.3324L13.1745 38.6183L10.3977 38.8206L10.042 37.4341Z" fill="white" stroke="#091E42" stroke-linecap="round" stroke-linejoin="round"/>
<path d="M10.3096 39.2952L13.4947 39.2224L14.3112 39.4814L14.2707 40.6817L10.5521 40.7087L10.3096 39.2952Z" fill="white" stroke="#091E42" stroke-linecap="round" stroke-linejoin="round"/>
<path d="M10.8181 41.2132L14.4559 41.0378L14.4154 41.9469L12.6572 42.3623L10.7979 42.2921L10.8181 41.2132Z" fill="white" stroke="#091E42" stroke-linecap="round" stroke-linejoin="round"/>
<path d="M11.0365 42.7454L13.9751 42.8452L14.2418 43.3469L13.8134 43.8999L11.1861 44.0131L10.7334 43.1581L11.0365 42.7454Z" fill="white" stroke="#091E42" stroke-linecap="round" stroke-linejoin="round"/>
<path d="M14.4239 44.5015L14.8281 45.2864C14.8926 45.3698 14.9263 45.4623 14.9263 45.5562C14.9263 45.65 14.8926 45.7425 14.8281 45.8259C14.7529 45.8832 14.657 45.9268 14.5494 45.9523C14.4418 45.9778 14.3263 45.9844 14.2137 45.9716C13.9874 45.9581 13.7651 45.9068 13.5387 45.8987C12.8556 45.8799 12.2291 46.2548 11.5581 46.1685C11.2954 45.6829 10.6325 44.9708 11.5299 44.7523C11.6956 44.7173 14.5209 44.6795 14.4239 44.5015Z" fill="white" stroke="#091E42" stroke-linecap="round" stroke-linejoin="round"/>
<path d="M14.412 46.7104C14.4761 46.8971 14.522 47.0863 14.5494 47.2769C14.5904 47.3974 14.5845 47.5229 14.5321 47.6415C14.4797 47.76 14.3827 47.8676 14.2503 47.954C14.0779 48.0171 13.8851 48.0514 13.6885 48.0538L11.3522 48.194C11.3181 47.8997 11.3113 47.6042 11.332 47.3093C11.4694 46.9586 11.3724 46.9883 11.8696 46.8453C12.6577 46.6214 13.6036 46.9775 14.412 46.7104Z" fill="white" stroke="#091E42" stroke-linecap="round" stroke-linejoin="round"/>
<path d="M5.91602 8.55273C5.91602 8.55273 6.79717 14.2362 6.83759 15.3611" stroke="#091E42" stroke-linecap="round" stroke-linejoin="round"/>
<path d="M7.81543 8.61475L8.22771 11.7465" stroke="#091E42" stroke-linecap="round" stroke-linejoin="round"/>
<path d="M14.3994 7.43042L14.933 11.1016L15.6807 11.1502L15.4382 7.46549L14.3994 7.43042Z" fill="white" stroke="#091E42" stroke-linecap="round" stroke-linejoin="round"/>
<path opacity="0.2" d="M29.5855 47.7814C29.5437 47.8645 29.4763 47.9407 29.3875 48.0053C27.9566 48.9089 21.8492 49.9124 16.6027 50.6353V48.2076L8.9674 46.902L7.81543 46.7051L8.3328 42.9071L10.3093 28.395L12.0353 5.80396L12.108 4.84368L26.8814 4.41748C26.8814 4.41748 26.9704 5.14309 27.1199 6.41088C28.094 14.487 31.4408 44.5957 29.5855 47.7814Z" fill="#091E42" fill-opacity="0.7"/>
<path d="M29.5849 47.7814C29.5431 47.8645 29.4756 47.9407 29.3868 48.0053C27.956 48.9089 21.8485 49.9124 16.6021 50.6353C12.2569 51.2368 8.51809 51.6441 8.51809 51.6441C8.51809 51.6441 5.6402 35.6834 5.6402 34.0056C5.6402 32.3278 1 5.16467 1 5.16467L12.1235 4.84368L26.8808 4.41748C26.8808 4.41748 26.9697 5.14309 27.1193 6.41088C28.0934 14.487 31.4402 44.5957 29.5849 47.7814Z" stroke="#091E42" stroke-linecap="round" stroke-linejoin="round"/>
<path d="M37.414 84.0001C37.507 83.4309 36.165 75.2658 36.1408 74.3783C36.0761 71.9506 35.0454 68.765 35.0454 68.765C33.6064 66.3103 32.4868 60.6538 28.6469 57.0257C24.8071 53.3977 24.8111 49.1303 24.1725 45.5077C23.5338 41.885 23.6915 42.1979 23.8532 38.9826C23.9698 36.5673 23.809 34.1497 23.3722 31.7508C23.0528 29.6144 22.4142 25.8569 23.3722 24.1063C24.3301 22.3556 26.8361 21.9483 29.5806 23.7016C32.3251 25.455 33.4448 32.6436 33.4448 33.5311C33.4448 34.4185 33.4448 37.1915 34.4068 38.2597C34.4068 38.2597 39.8432 36.4039 39.8432 35.8913C39.8432 35.3788 39.6815 30.8498 40.4818 30.6071L37.2846 23.7016L43.3476 22.2639C44.4889 22.947 45.4747 23.7376 46.274 24.6107C46.9583 25.3336 47.5312 26.1009 47.9838 26.9008C50.5423 31.4298 54.653 34.5885 55.5018 35.8913C56.3507 37.1942 55.5018 47.5416 55.5018 49.4648C55.5018 51.3881 53.6425 60.2546 53.691 61.7462C53.7274 62.8252 54.8188 66.839 55.906 69.9168C56.3102 71.1036 58.7637 79.703 59.1396 80.3855L37.414 84.0001Z" fill="white"/>
<path opacity="0.4" d="M42.1997 30.1512C42.1593 30.7312 43.198 35.3545 43.198 35.3545C43.9175 36.5064 39.9887 40.4338 39.9887 40.4338C39.1399 40.7521 38.7761 42.7266 38.7761 42.7266C36.1165 42.3328 30.0252 38.2462 30.0252 38.2462C30.0252 38.2462 29.3058 39.9213 28.4974 44.0673C27.689 48.2132 32.8142 58.0615 34.9969 64.8618C37.1795 71.662 36.1408 74.3702 36.1408 74.3702C36.0761 71.9425 35.0454 68.7569 35.0454 68.7569C33.6064 66.3022 32.4868 60.6457 28.6469 57.0176C24.8071 53.3896 24.8111 49.1303 24.1725 45.5077C23.5338 41.885 23.6915 42.1979 23.8532 38.9826C23.9698 36.5673 23.809 34.1497 23.3722 31.7508C23.0528 29.6144 22.4142 25.8569 23.3722 24.1063C24.3301 22.3556 26.8361 21.9483 29.5806 23.7016C32.3251 25.455 33.4448 32.6436 33.4448 33.5311C33.4448 34.4185 33.4448 37.1915 34.4067 38.2597C34.4067 38.2597 39.8432 36.4039 39.8432 35.8913C39.8432 35.3788 39.6815 30.8498 40.4818 30.6071L37.2846 23.7016L43.3476 22.2639C44.4889 22.947 45.4747 23.7376 46.274 24.6107C44.3136 27.2272 42.2401 29.7898 42.1997 30.1512Z" fill="white"/>
<path opacity="0.4" d="M52.3942 62.4609C52.661 60.8424 53.4572 56.9959 53.9625 54.5952C53.3441 56.4699 52.3457 57.4194 52.3457 57.4194C52.3457 57.4194 54.0676 43.6625 54.2373 42.8236C54.4071 41.9847 56.1452 38.2137 55.5065 35.8777C56.3554 37.1778 55.5065 47.5279 55.5065 49.4512C55.5065 51.3744 53.6472 60.2409 53.6957 61.7326C53.7321 62.8115 55.4661 69.6873 56.5534 72.7651C54.2171 70.4992 52.1274 64.0874 52.3942 62.4609Z" fill="white"/>
<path d="M59.1323 80.3721C57.855 77.9174 53.7524 63.2164 53.7039 61.7328C53.6554 60.2492 55.5147 51.372 55.5147 49.4514C55.5147 47.5308 56.3635 37.1781 55.5147 35.8779C54.6659 34.5777 50.5552 31.4164 47.9966 26.8874C47.0295 25.1164 45.4396 23.5263 43.3605 22.2505L37.2975 23.6882L40.4947 30.5936C39.6863 30.8364 39.8561 35.3654 39.8561 35.8779C39.8561 36.3904 34.4196 38.2463 34.4196 38.2463C33.4577 37.1673 33.4576 34.4051 33.4576 33.5177C33.4576 32.6302 32.338 25.4388 29.5935 23.6882C26.849 21.9376 24.339 22.3395 23.385 24.0928C22.4311 25.8462 23.0657 29.601 23.385 31.7374C23.8225 34.1389 23.9833 36.5593 23.866 38.9773C23.7044 42.1926 23.5427 41.8743 24.1854 45.5024C24.828 49.1304 24.824 53.3977 28.6598 57.0258C32.4957 60.6538 33.6193 66.3103 35.0583 68.765C35.0583 68.765 37.7745 81.8664 37.4269 84.0001" stroke="#091E42" stroke-linecap="round" stroke-linejoin="round"/>
<path d="M34.4072 38.2461C34.4072 38.2461 35.3652 41.2322 37.5236 42.7265" stroke="#091E42" stroke-linecap="round" stroke-linejoin="round"/>
<path d="M34.9893 39.6082C34.9893 39.6082 39.0312 40.4336 40.7208 40.4848" stroke="#091E42" stroke-linecap="round" stroke-linejoin="round"/>
<path d="M39.8438 35.8777C39.8438 35.8777 42.7216 34.9902 44.5607 35.5243" stroke="#091E42" stroke-linecap="round" stroke-linejoin="round"/>
<path d="M40.4824 30.5935C40.4824 30.5935 42.7217 30.4559 43.1986 29.7087" stroke="#091E42" stroke-linecap="round" stroke-linejoin="round"/>
<path d="M29.3867 57.7864C29.3867 57.7864 33.6874 61.3497 34.9647 63.1623" stroke="#091E42" stroke-linecap="round" stroke-linejoin="round"/>
<path d="M54.3943 42.1924C53.6749 45.022 52.7129 52.7582 52.3936 54.1447" stroke="#091E42" stroke-linecap="round" stroke-linejoin="round"/>
<path d="M55.7683 36.8569C55.8896 39.4195 54.96 40.752 54.96 40.752" stroke="#091E42" stroke-linecap="round" stroke-linejoin="round"/>
<path d="M22.7096 1L52.3454 6.21683C52.3454 6.21683 41.9292 27.3135 39.8153 29.93L36.2826 48.3211C36.2826 48.3211 17.35 47.7654 8.64355 46.0094C8.64355 46.0094 14.1487 26.8576 14.4438 24.3031C14.7389 21.7487 22.7096 1 22.7096 1Z" fill="white"/>
<path d="M16.3349 23.17L22.8668 4.53348C22.8668 4.53348 25.6759 3.60287 26.7632 2.75317L47.9957 6.78314C47.9957 6.78314 48.0604 8.17232 49.2771 9.06247L38.5618 29.6682L35.9628 44.8574C35.9628 44.8574 32.5069 45.0408 32.1754 46.7456C32.1754 46.7456 20.9711 47.1502 13.457 45.8285C13.457 45.8285 12.5718 43.9861 11.2178 42.8208L16.3349 23.17Z" stroke="#091E42" stroke-linecap="round" stroke-linejoin="round"/>
<path d="M21.7716 24.1386C21.7716 24.1386 23.6996 19.2832 30.4901 20.1545C37.2807 21.0257 33.4448 27.0086 33.4448 27.0086C33.4448 27.0086 33.4852 31.837 27.976 31.1708C23.1984 30.5935 20.6519 28.8429 21.7716 24.1386Z" fill="white" stroke="#091E42" stroke-linecap="round" stroke-linejoin="round"/>
<path d="M25.45 6.30566C25.45 6.30566 23.3967 11.8543 22.8672 12.9225" stroke="#091E42" stroke-linecap="round" stroke-linejoin="round"/>
<path d="M27.2081 6.78589L26.0117 9.82859" stroke="#091E42" stroke-linecap="round" stroke-linejoin="round"/>
<path d="M42.1996 8.91943L46.286 9.87972L45.8374 10.7348H44.5601L41.8398 10.3086L42.1996 8.91943Z" fill="white" stroke="#091E42" stroke-linecap="round" stroke-linejoin="round"/>
<path d="M41.521 10.7349L44.5606 11.3742L45.1993 11.8003L44.5606 12.9225L41.04 12.1213L41.521 10.7349Z" fill="white" stroke="#091E42" stroke-linecap="round" stroke-linejoin="round"/>
<path d="M41.0392 12.6555L44.5598 13.3029L44.0626 14.1499H42.1993L40.4814 13.6698L41.0392 12.6555Z" fill="white" stroke="#091E42" stroke-linecap="round" stroke-linejoin="round"/>
<path d="M40.4814 14.1499L43.1976 14.8971V15.4285L42.5186 15.8574L39.9883 15.3772V14.4682L40.4814 14.1499Z" fill="white" stroke="#091E42" stroke-linecap="round" stroke-linejoin="round"/>
<path d="M42.7973 16.5585V17.3893C42.8183 17.4808 42.8069 17.5743 42.7641 17.6623C42.7213 17.7504 42.6482 17.8306 42.5507 17.8964C42.4503 17.933 42.3377 17.9522 42.2233 17.9522C42.1089 17.9522 41.9963 17.933 41.8959 17.8964C41.6898 17.8316 41.4917 17.7345 41.2977 17.6779C40.6631 17.508 39.883 17.7211 39.2767 17.4945C39.2767 16.9793 39.0059 16.1619 39.9598 16.1458C40.1175 16.1538 42.7973 16.7473 42.7973 16.5585Z" fill="white" stroke="#091E42" stroke-linecap="round" stroke-linejoin="round"/>
<path d="M41.6784 18.6383C41.6479 18.8284 41.5965 19.0169 41.5248 19.202C41.4359 19.4421 41.2621 19.7091 40.9023 19.7739C40.7086 19.7954 40.51 19.7842 40.3243 19.7415L38.0527 19.3423C38.1626 19.0585 38.2976 18.7793 38.4569 18.5061C38.7641 18.2067 38.659 18.2121 39.1966 18.1878C40.0697 18.1635 40.7811 18.7111 41.6784 18.6383Z" fill="white" stroke="#091E42" stroke-linecap="round" stroke-linejoin="round"/>
<path d="M34.0067 7.16089L32.6445 10.735L33.3236 10.9481L34.9646 7.42524L34.0067 7.16089Z" fill="white" stroke="#091E42" stroke-linecap="round" stroke-linejoin="round"/>
<path d="M16.9368 31.1626L21.1323 31.8882L20.7928 32.7622L19.5196 32.8377L16.7549 32.5653L16.9368 31.1626Z" fill="white" stroke="#091E42" stroke-linecap="round" stroke-linejoin="round"/>
<path d="M16.4925 33.0103L19.6007 33.4742L20.296 33.8626L19.8028 35.0171L16.1934 34.4183L16.4925 33.0103Z" fill="white" stroke="#091E42" stroke-linecap="round" stroke-linejoin="round"/>
<path d="M16.2624 34.9524L19.8517 35.3948L19.4637 36.266L17.6084 36.3739L15.834 35.9936L16.2624 34.9524Z" fill="white" stroke="#091E42" stroke-linecap="round" stroke-linejoin="round"/>
<path d="M15.894 36.4709L18.6991 37.0617L18.7678 37.5931L18.1454 38.057L15.5625 37.7226L15.4453 36.8189L15.894 36.4709Z" fill="white" stroke="#091E42" stroke-linecap="round" stroke-linejoin="round"/>
<path d="M18.509 38.7396L18.6181 39.5678C18.6513 39.658 18.6521 39.7521 18.6205 39.8426C18.5889 39.933 18.5257 40.0172 18.4362 40.0884C18.3411 40.1305 18.2314 40.1558 18.1176 40.1619C18.0038 40.168 17.8895 40.1548 17.7855 40.1234C17.5713 40.0722 17.3813 39.9859 17.159 39.9427C16.5082 39.8078 15.7564 40.0641 15.138 39.8726C15.0652 39.36 14.6974 38.5616 15.6432 38.4996C15.7887 38.4942 18.5332 38.9285 18.509 38.7396Z" fill="white" stroke="#091E42" stroke-linecap="round" stroke-linejoin="round"/>
<path d="M17.6651 40.8759C17.6594 41.0721 17.6323 41.2677 17.5843 41.4613C17.5236 41.7041 17.3862 41.9819 17.0386 42.0655C16.8476 42.0979 16.6475 42.0979 16.4565 42.0655L14.1445 41.7958C14.2224 41.5059 14.3263 41.2195 14.4558 40.938C14.7225 40.6224 14.6175 40.6332 15.151 40.5792C15.9998 40.4956 16.7759 41 17.6651 40.8759Z" fill="white" stroke="#091E42" stroke-linecap="round" stroke-linejoin="round"/>
<path d="M34.4062 43.4952C34.4062 43.4952 35.3682 36.3362 35.3682 35.616" stroke="#091E42" stroke-linecap="round" stroke-linejoin="round"/>
<path d="M32.4863 43.1743C32.4863 43.1743 32.8905 39.4518 32.9633 38.8044" stroke="#091E42" stroke-linecap="round" stroke-linejoin="round"/>
<path d="M24.9889 40.4849L23.6914 44.7225H24.9889L25.9307 40.4849H24.9889Z" fill="white" stroke="#091E42" stroke-linecap="round" stroke-linejoin="round"/>
<path opacity="0.2" d="M39.8831 29.8247C37.078 29.4336 34.576 28.859 32.7248 28.0309C32.7248 28.0309 34.0667 30.6043 38.8241 34.9903L36.2656 48.321C36.2656 48.321 23.9092 47.9596 14.5723 46.8941C17.4421 41.4992 22.6562 31.2759 22.0378 29.2502C21.2011 26.4691 24.1558 23.1863 24.1558 23.1863C33.4968 22.0642 42.5549 17.3518 48.7715 13.3677C45.6066 19.6122 41.2857 27.9743 39.8831 29.8247Z" fill="#091E42" fill-opacity="0.7"/>
<path d="M22.7096 1L52.3454 6.21683C52.3454 6.21683 41.9292 27.3135 39.8153 29.93L36.2826 48.3211C36.2826 48.3211 17.35 47.7654 8.64355 46.0094C8.64355 46.0094 14.1487 26.8576 14.4438 24.3031C14.7389 21.7487 22.7096 1 22.7096 1Z" stroke="#091E42" stroke-linecap="round" stroke-linejoin="round"/>
<path d="M39.1399 42.9964L34.9646 63.1624C34.0349 61.8434 31.5006 59.5937 30.191 58.4689C29.7059 58.0481 29.3826 57.7864 29.3826 57.7864L28.6429 57.0257C24.807 53.3977 24.8071 49.1304 24.1684 45.5023C23.5298 41.8743 23.6874 42.1926 23.8491 38.9772C23.9667 36.5638 23.8072 34.1479 23.3722 31.7508C23.0528 29.6144 22.4142 25.8569 23.3722 24.1063C23.841 23.2485 24.6858 22.7144 25.7448 22.6011C26.8038 22.4878 28.17 22.8115 29.5806 23.7017C32.3251 25.4523 33.4448 32.6436 33.4448 33.5311C33.4448 34.4186 33.4448 37.1915 34.4068 38.2597C34.4068 38.2462 36.9855 41.502 39.1399 42.9964Z" fill="white"/>
<path opacity="0.4" d="M28.3276 55.588C29.2007 56.3325 29.7949 57.406 30.191 58.4688C29.7059 58.048 29.3826 57.7864 29.3826 57.7864L28.6429 57.0257C24.8071 53.3977 24.8071 49.1303 24.1684 45.5023C23.5298 41.8742 23.6874 42.1925 23.8491 38.9772C23.9667 36.5638 23.8072 34.1479 23.3722 31.7508C23.0528 29.6144 22.4142 25.8569 23.3722 24.1062C23.841 23.2485 24.6858 22.7144 25.7448 22.6011C27.7658 22.9841 29.7868 24.3571 30.4901 26.7066C31.7027 30.6502 26.2339 27.4645 24.9687 30.8067C23.7036 34.1488 25.5427 35.0497 26.2985 35.8913C27.0544 36.7329 26.0884 38.5888 24.9687 41.0812C23.8491 43.5736 25.9307 53.5406 28.3276 55.588Z" fill="white"/>
<path d="M39.1401 42.9962C36.9817 41.5019 34.407 38.2461 34.407 38.2461C33.445 37.1671 33.445 34.4049 33.445 33.5175C33.445 32.63 32.3253 25.4386 29.5808 23.688C26.8363 21.9374 24.3263 22.3393 23.3724 24.0926C22.4184 25.846 23.053 29.6008 23.3724 31.7372C23.8098 34.1387 23.9706 36.5591 23.8533 38.9771C23.6917 42.1924 23.53 41.8741 24.1727 45.5022C24.8153 49.1302 24.8113 53.3975 28.6471 57.0256L29.3868 57.7862C29.3868 57.7862 33.6875 61.3496 34.9647 63.1622" stroke="#091E42" stroke-linecap="round" stroke-linejoin="round"/>
<path d="M24.9893 34.4616C24.9893 34.4616 28.6553 33.1965 30.4904 33.3044" stroke="#091E42" stroke-linecap="round" stroke-linejoin="round"/>
</svg>
