<svg width="108" height="92" viewBox="0 0 108 92" fill="none" xmlns="http://www.w3.org/2000/svg">
<path d="M70.0222 1.00011L25.0586 6.02344L32.0459 69.057L77.0096 64.0337L70.0222 1.00011Z" fill="white" stroke="#263238" stroke-linecap="round" stroke-linejoin="round"/>
<path d="M70.0223 1.00059L25.0586 6.02393L26.0254 14.7453L70.989 9.72199L70.0223 1.00059Z" fill="#BFBFBF" stroke="#263238" stroke-linecap="round" stroke-linejoin="round"/>
<path d="M57.527 4.99591L38.1176 7.17356C38.0274 7.17809 37.9391 7.20113 37.858 7.24125C37.777 7.28137 37.7048 7.33774 37.6461 7.40691C37.5874 7.47609 37.5432 7.55661 37.5164 7.64357C37.4895 7.73053 37.4805 7.8221 37.49 7.91268C37.4994 8.00326 37.527 8.09095 37.5712 8.1704C37.6153 8.24984 37.6751 8.31938 37.7468 8.37475C37.8185 8.43012 37.9006 8.47018 37.9882 8.49246C38.0757 8.51474 38.1669 8.51878 38.256 8.50434L57.6654 6.3267C57.8353 6.3008 57.9885 6.20957 58.0931 6.07216C58.1977 5.93475 58.2454 5.76183 58.2263 5.58968C58.2072 5.41754 58.1228 5.25954 57.9907 5.14883C57.8586 5.03813 57.6891 4.98332 57.5178 4.99591H57.527Z" fill="white"/>
<path d="M52.9762 8.27188L43.2738 9.36071C43.2304 9.36504 43.1884 9.37804 43.1501 9.39895C43.1118 9.41986 43.078 9.44826 43.0508 9.48249C43.0235 9.51671 43.0033 9.55608 42.9912 9.59829C42.9792 9.64049 42.9757 9.68469 42.9808 9.7283C42.9901 9.81648 43.0337 9.89735 43.102 9.95317C43.1703 10.009 43.2578 10.0352 43.3453 10.0261L53.05 8.93727C53.1349 8.92432 53.2115 8.87871 53.2638 8.81C53.3161 8.7413 53.34 8.65484 53.3304 8.56877C53.3209 8.48269 53.2786 8.40369 53.2126 8.34834C53.1465 8.29299 53.0618 8.26559 52.9762 8.27188Z" fill="white"/>
<path opacity="0.3" d="M60.2282 15.8146L34.7957 18.6669C34.7306 18.6743 34.671 18.7075 34.6301 18.7592C34.5892 18.8109 34.5704 18.8769 34.5777 18.9426C34.5851 19.0083 34.618 19.0684 34.6693 19.1096C34.7205 19.1509 34.7859 19.1699 34.8511 19.1625L60.2766 16.3101C60.3418 16.3027 60.4014 16.2695 60.4422 16.2178C60.4831 16.1661 60.502 16.1001 60.4946 16.0344C60.4873 15.9687 60.4544 15.9086 60.4031 15.8674C60.3518 15.8262 60.2864 15.8072 60.2213 15.8146H60.2282Z" fill="black"/>
<path opacity="0.3" d="M60.4254 17.5943L31.1844 20.8747C31.1192 20.8821 31.0597 20.9153 31.0188 20.967C30.9779 21.0188 30.9591 21.0847 30.9664 21.1504C30.9737 21.2161 31.0067 21.2762 31.0579 21.3175C31.1092 21.3587 31.1746 21.3777 31.2398 21.3703L60.4807 18.0899C60.514 18.0878 60.5466 18.079 60.5764 18.064C60.6062 18.049 60.6327 18.028 60.6543 18.0023C60.6758 17.9767 60.692 17.9469 60.7018 17.9147C60.7117 17.8826 60.7149 17.8488 60.7114 17.8153C60.7078 17.7816 60.6974 17.7489 60.6808 17.7193C60.6643 17.6897 60.642 17.6638 60.6153 17.6431C60.5885 17.6225 60.5579 17.6075 60.5253 17.5991C60.4927 17.5907 60.4587 17.5891 60.4254 17.5943Z" fill="black"/>
<path opacity="0.3" d="M52.9898 20.2302L31.3797 22.6545C31.3145 22.6619 31.255 22.6951 31.2141 22.7468C31.1732 22.7985 31.1544 22.8644 31.1617 22.9301C31.1691 22.9959 31.202 23.0559 31.2532 23.0972C31.3045 23.1384 31.3699 23.1574 31.4351 23.15L53.0429 20.7257C53.0761 20.7237 53.1087 20.7149 53.1385 20.6999C53.1683 20.6848 53.1948 20.6639 53.2164 20.6382C53.2379 20.6125 53.2541 20.5827 53.2639 20.5506C53.2738 20.5185 53.277 20.4847 53.2735 20.4512C53.2699 20.4177 53.2595 20.3852 53.2432 20.3558C53.2268 20.3264 53.2047 20.3006 53.1782 20.2799C53.1517 20.2593 53.1214 20.2443 53.089 20.2357C53.0567 20.2272 53.0229 20.2253 52.9898 20.2302Z" fill="black"/>
<path opacity="0.3" d="M66.6771 14.869L64.0979 15.1585C63.751 15.1974 63.501 15.5127 63.5396 15.8626L63.8267 18.4639C63.8653 18.8138 64.1778 19.0659 64.5248 19.0269L67.104 18.7374C67.4509 18.6985 67.7009 18.3833 67.6623 18.0334L67.3752 15.4321C67.3366 15.0822 67.0241 14.8301 66.6771 14.869Z" stroke="#263238" stroke-linecap="round" stroke-linejoin="round"/>
<path d="M64.5566 16.8683L65.4055 17.6756L66.522 15.9517" stroke="#B6D3F9" stroke-width="3" stroke-linecap="round" stroke-linejoin="round"/>
<path opacity="0.3" d="M61.1588 24.2457L35.7332 27.0981C35.6681 27.1055 35.6085 27.1387 35.5676 27.1904C35.5267 27.2421 35.5079 27.308 35.5152 27.3737C35.5226 27.4395 35.5555 27.4995 35.6068 27.5408C35.658 27.582 35.7234 27.601 35.7886 27.5936L61.2141 24.7413C61.2464 24.7376 61.2776 24.7276 61.306 24.7117C61.3345 24.6959 61.3595 24.6745 61.3797 24.6489C61.4 24.6233 61.415 24.594 61.424 24.5625C61.433 24.531 61.4358 24.4981 61.4321 24.4656C61.4285 24.433 61.4185 24.4015 61.4028 24.3729C61.3871 24.3442 61.366 24.319 61.3406 24.2985C61.3152 24.2781 61.2861 24.2629 61.2549 24.2539C61.2237 24.2448 61.191 24.242 61.1588 24.2457Z" fill="black"/>
<path opacity="0.3" d="M61.3551 26.0255L32.1141 29.3059C32.0818 29.3096 32.0506 29.3196 32.0222 29.3355C31.9938 29.3513 31.9687 29.3726 31.9485 29.3982C31.9282 29.4238 31.9132 29.4532 31.9042 29.4847C31.8952 29.5161 31.8925 29.5491 31.8961 29.5816C31.8997 29.6142 31.9097 29.6457 31.9254 29.6743C31.9411 29.703 31.9622 29.7282 31.9876 29.7486C32.013 29.7691 32.0421 29.7842 32.0733 29.7933C32.1045 29.8024 32.1372 29.8051 32.1694 29.8015L61.4104 26.521C61.4756 26.5136 61.5352 26.4804 61.576 26.4287C61.6169 26.377 61.6358 26.3111 61.6284 26.2454C61.6211 26.1796 61.5882 26.1196 61.5369 26.0783C61.4856 26.0371 61.4202 26.0181 61.3551 26.0255Z" fill="black"/>
<path opacity="0.3" d="M53.9195 28.6613L32.3094 31.0856C32.2442 31.093 32.1847 31.1262 32.1438 31.1779C32.1029 31.2296 32.0841 31.2956 32.0914 31.3613C32.0987 31.427 32.1317 31.4871 32.1829 31.5283C32.2342 31.5696 32.2996 31.5886 32.3648 31.5812L53.9726 29.1569C54.0058 29.1549 54.0384 29.1461 54.0682 29.131C54.098 29.116 54.1245 29.095 54.1461 29.0694C54.1676 29.0437 54.1838 29.0139 54.1936 28.9818C54.2035 28.9496 54.2067 28.9158 54.2032 28.8824C54.1996 28.8488 54.1892 28.8164 54.1728 28.7869C54.1565 28.7575 54.1344 28.7317 54.1079 28.7111C54.0814 28.6905 54.0511 28.6754 54.0187 28.6669C53.9863 28.6583 53.9526 28.6565 53.9195 28.6613Z" fill="black"/>
<path opacity="0.3" d="M67.6078 23.2987L65.0286 23.5882C64.6816 23.6271 64.4317 23.9423 64.4703 24.2923L64.7573 26.8936C64.7959 27.2435 65.1085 27.4956 65.4554 27.4566L68.0346 27.1671C68.3816 27.1282 68.6315 26.813 68.5929 26.4631L68.3059 23.8618C68.2673 23.5119 67.9547 23.2598 67.6078 23.2987Z" stroke="#263238" stroke-linecap="round" stroke-linejoin="round"/>
<path d="M65.4883 25.3L66.3349 26.1073L67.4514 24.3833" stroke="#B6D3F9" stroke-width="3" stroke-linecap="round" stroke-linejoin="round"/>
<path opacity="0.3" d="M62.0885 32.677L36.663 35.5294C36.602 35.5412 36.5476 35.5759 36.5108 35.6264C36.474 35.6769 36.4575 35.7395 36.4645 35.8018C36.4714 35.8641 36.5015 35.9214 36.5485 35.9623C36.5956 36.0033 36.6563 36.0248 36.7184 36.0226L62.1439 33.1656C62.1762 33.1619 62.2074 33.1519 62.2358 33.136C62.2642 33.1202 62.2893 33.0989 62.3095 33.0733C62.3298 33.0477 62.3448 33.0183 62.3538 32.9868C62.3628 32.9554 62.3655 32.9224 62.3619 32.8899C62.3583 32.8573 62.3483 32.8258 62.3326 32.7972C62.3169 32.7685 62.2958 32.7433 62.2704 32.7229C62.245 32.7024 62.2159 32.6873 62.1847 32.6782C62.1535 32.6691 62.1208 32.6664 62.0885 32.67V32.677Z" fill="black"/>
<path opacity="0.3" d="M62.2864 34.4571L33.0431 37.7376C33.0107 37.7407 32.9794 37.7504 32.9509 37.766C32.9223 37.7816 32.8972 37.8029 32.877 37.8285C32.8568 37.8541 32.8418 37.8836 32.8331 37.9151C32.8244 37.9466 32.8221 37.9796 32.8262 38.0121C32.8297 38.0446 32.8395 38.0762 32.855 38.1049C32.8706 38.1337 32.8916 38.159 32.9169 38.1795C32.9422 38.2001 32.9712 38.2154 33.0024 38.2246C33.0335 38.2338 33.0662 38.2367 33.0984 38.2331L62.3394 34.9527C62.3728 34.9504 62.4054 34.9413 62.4352 34.926C62.4651 34.9107 62.4915 34.8895 62.5131 34.8637C62.5346 34.8378 62.5507 34.8079 62.5605 34.7756C62.5703 34.7433 62.5736 34.7094 62.5701 34.6758C62.5665 34.6424 62.5561 34.61 62.5397 34.5807C62.5233 34.5513 62.5012 34.5257 62.4746 34.5052C62.4481 34.4848 62.4177 34.47 62.3854 34.4617C62.353 34.4535 62.3193 34.4519 62.2864 34.4571Z" fill="black"/>
<path opacity="0.3" d="M54.8492 37.0931L33.2391 39.5174C33.1739 39.5248 33.1144 39.558 33.0735 39.6097C33.0326 39.6614 33.0137 39.7274 33.0211 39.7931C33.0284 39.8588 33.0614 39.9189 33.1126 39.9601C33.1639 40.0013 33.2293 40.0203 33.2944 40.0129L54.9022 37.5864C54.9674 37.5793 55.0271 37.5463 55.0682 37.4949C55.1093 37.4434 55.1284 37.3775 55.1214 37.3118C55.1143 37.2461 55.0817 37.1859 55.0307 37.1445C54.9796 37.103 54.9143 37.0837 54.8492 37.0908V37.0931Z" fill="black"/>
<path opacity="0.3" d="M68.5375 31.7279L65.9583 32.0174C65.6113 32.0563 65.3614 32.3715 65.4 32.7215L65.687 35.3228C65.7256 35.6727 66.0382 35.9248 66.3851 35.8858L68.9643 35.5963C69.3113 35.5574 69.5612 35.2422 69.5226 34.8923L69.2356 32.291C69.197 31.941 68.8844 31.689 68.5375 31.7279Z" stroke="#263238" stroke-linecap="round" stroke-linejoin="round"/>
<path d="M66.418 33.731L67.2646 34.5383L68.3834 32.812" stroke="#B6D3F9" stroke-width="3" stroke-linecap="round" stroke-linejoin="round"/>
<path opacity="0.3" d="M63.0182 41.1085L37.5927 43.9608C37.5317 43.9727 37.4773 44.0074 37.4405 44.0579C37.4037 44.1084 37.3872 44.171 37.3941 44.2333C37.4011 44.2956 37.4312 44.3529 37.4782 44.3938C37.5253 44.4348 37.5859 44.4563 37.648 44.4541L63.0736 41.6017C63.1076 41.6005 63.141 41.5922 63.1717 41.5774C63.2024 41.5626 63.2297 41.5415 63.2519 41.5155C63.2741 41.4895 63.2908 41.4592 63.3008 41.4264C63.3108 41.3936 63.314 41.359 63.3102 41.3249C63.3064 41.2908 63.2956 41.2579 63.2786 41.2282C63.2615 41.1985 63.2385 41.1727 63.2111 41.1524C63.1837 41.132 63.1524 41.1176 63.1192 41.1101C63.086 41.1025 63.0516 41.102 63.0182 41.1085Z" fill="black"/>
<path opacity="0.3" d="M63.2161 42.8882L33.9727 46.1686C33.9404 46.1718 33.9091 46.1815 33.8806 46.1971C33.852 46.2127 33.8269 46.234 33.8067 46.2596C33.7864 46.2852 33.7715 46.3146 33.7628 46.3462C33.7541 46.3777 33.7517 46.4107 33.7559 46.4432C33.7594 46.4757 33.7691 46.5073 33.7847 46.536C33.8002 46.5647 33.8213 46.5901 33.8466 46.6106C33.8718 46.6312 33.9009 46.6465 33.932 46.6557C33.9632 46.6648 33.9958 46.6677 34.0281 46.6642L63.2691 43.3838C63.3345 43.3762 63.3942 43.3428 63.4353 43.2909C63.4763 43.239 63.4954 43.1729 63.4883 43.1069C63.4807 43.0416 63.4479 42.9819 63.3969 42.9409C63.3459 42.9 63.2809 42.881 63.2161 42.8882Z" fill="black"/>
<path opacity="0.3" d="M55.7879 45.5242L34.1778 47.9484C34.1455 47.9516 34.1142 47.9613 34.0856 47.9769C34.0571 47.9925 34.032 48.0138 34.0117 48.0394C33.9915 48.065 33.9766 48.0944 33.9679 48.126C33.9592 48.1575 33.9568 48.1905 33.961 48.223C33.9644 48.2555 33.9742 48.2871 33.9898 48.3158C34.0053 48.3445 34.0263 48.3699 34.0516 48.3904C34.0769 48.411 34.106 48.4263 34.1371 48.4355C34.1683 48.4446 34.2009 48.4475 34.2332 48.444L55.841 46.0197C55.8733 46.0163 55.9045 46.0064 55.933 45.9907C55.9615 45.975 55.9867 45.9538 56.007 45.9283C56.0274 45.9028 56.0426 45.8735 56.0517 45.8421C56.0608 45.8107 56.0637 45.7778 56.0601 45.7452C56.057 45.7125 56.0474 45.6808 56.0319 45.6519C56.0165 45.6231 55.9955 45.5976 55.9701 45.577C55.9447 45.5564 55.9156 45.5411 55.8843 45.5321C55.853 45.523 55.8203 45.5203 55.7879 45.5242Z" fill="black"/>
<path opacity="0.3" d="M69.4672 40.16L66.8879 40.4495C66.541 40.4885 66.2911 40.8037 66.3297 41.1536L66.6167 43.7549C66.6553 44.1048 66.9679 44.3569 67.3148 44.3179L69.894 44.0285C70.241 43.9895 70.4909 43.6743 70.4523 43.3244L70.1653 40.7231C70.1267 40.3732 69.8141 40.1211 69.4672 40.16Z" stroke="#263238" stroke-linecap="round" stroke-linejoin="round"/>
<path d="M67.3477 42.1603L68.1943 42.9676L69.3131 41.2437" stroke="#B6D3F9" stroke-width="3" stroke-linecap="round" stroke-linejoin="round"/>
<path opacity="0.3" d="M63.9489 49.5379L38.5233 52.3902C38.491 52.3937 38.4598 52.4036 38.4313 52.4193C38.4028 52.435 38.3777 52.4562 38.3574 52.4817C38.337 52.5072 38.3218 52.5365 38.3127 52.5679C38.3036 52.5993 38.3007 52.6322 38.3042 52.6647C38.3076 52.6973 38.3175 52.7288 38.333 52.7575C38.3486 52.7862 38.3696 52.8116 38.3949 52.8321C38.4202 52.8526 38.4492 52.8679 38.4803 52.8771C38.5115 52.8863 38.5441 52.8893 38.5764 52.8858L64.0019 50.0334C64.0342 50.0299 64.0655 50.0201 64.094 50.0044C64.1225 49.9887 64.1476 49.9675 64.1679 49.942C64.1883 49.9165 64.2035 49.8872 64.2126 49.8558C64.2217 49.8244 64.2246 49.7914 64.2211 49.7589C64.2135 49.6934 64.1807 49.6335 64.1298 49.5922C64.0789 49.5508 64.0139 49.5313 63.9489 49.5379Z" fill="black"/>
<path opacity="0.3" d="M64.1456 51.3132L34.9023 54.5936C34.8682 54.5948 34.8348 54.6031 34.8042 54.6179C34.7735 54.6328 34.7462 54.6538 34.7239 54.6798C34.7017 54.7058 34.6851 54.7362 34.675 54.769C34.665 54.8018 34.6618 54.8363 34.6656 54.8704C34.6695 54.9045 34.6802 54.9374 34.6973 54.9671C34.7143 54.9968 34.7373 55.0227 34.7647 55.043C34.7921 55.0633 34.8234 55.0777 34.8566 55.0852C34.8898 55.0928 34.9242 55.0933 34.9576 55.0868L64.1986 51.8064C64.2328 51.8056 64.2664 51.7976 64.2973 51.783C64.3282 51.7684 64.3558 51.7475 64.3784 51.7216C64.4009 51.6956 64.4178 51.6653 64.4281 51.6324C64.4384 51.5996 64.4418 51.5649 64.4381 51.5307C64.4344 51.4964 64.4237 51.4633 64.4067 51.4335C64.3896 51.4036 64.3666 51.3776 64.3392 51.3572C64.3117 51.3367 64.2803 51.3223 64.2469 51.3147C64.2136 51.3071 64.1791 51.3066 64.1456 51.3132Z" fill="black"/>
<path opacity="0.3" d="M56.7105 53.9558L35.1004 56.3801C35.0353 56.3875 34.9757 56.4207 34.9348 56.4724C34.8939 56.5241 34.8751 56.5901 34.8824 56.6558C34.8898 56.7215 34.9227 56.7816 34.9739 56.8228C35.0252 56.8641 35.0906 56.8831 35.1558 56.8757L56.7659 54.4514C56.8308 54.4432 56.89 54.4096 56.9306 54.3578C56.9712 54.306 56.9899 54.2402 56.9827 54.1745C56.9793 54.1421 56.9695 54.1106 56.9539 54.082C56.9383 54.0534 56.9172 54.0282 56.8919 54.0078C56.8666 53.9875 56.8375 53.9724 56.8064 53.9635C56.7752 53.9546 56.7427 53.952 56.7105 53.9558Z" fill="black"/>
<path opacity="0.3" d="M70.3988 48.5917L67.8196 48.8812C67.4727 48.9201 67.2227 49.2353 67.2613 49.5852L67.5483 52.1865C67.5869 52.5364 67.8995 52.7885 68.2464 52.7496L70.8257 52.4601C71.1726 52.4212 71.4225 52.1059 71.3839 51.756L71.0969 49.1547C71.0583 48.8048 70.7458 48.5527 70.3988 48.5917Z" stroke="#263238" stroke-linecap="round" stroke-linejoin="round"/>
<path d="M68.2773 50.592L69.1239 51.3993L70.2427 49.6753" stroke="#B6D3F9" stroke-width="3" stroke-linecap="round" stroke-linejoin="round"/>
<path opacity="0.3" d="M64.6578 55.9658L39.2322 58.8228C39.1671 58.8302 39.1075 58.8634 39.0666 58.9151C39.0258 58.9668 39.0069 59.0328 39.0143 59.0985C39.0216 59.1642 39.0545 59.2243 39.1058 59.2655C39.157 59.3067 39.2224 59.3257 39.2876 59.3183L64.7132 56.466C64.7455 56.4628 64.7768 56.4531 64.8054 56.4375C64.8339 56.4219 64.859 56.4007 64.8792 56.375C64.8995 56.3494 64.9144 56.32 64.9231 56.2884C64.9318 56.2569 64.9342 56.2239 64.93 56.1915C64.9271 56.1585 64.9177 56.1264 64.9024 56.0972C64.8871 56.0679 64.8662 56.042 64.8409 56.021C64.8155 56 64.7863 55.9843 64.7548 55.9748C64.7234 55.9653 64.6904 55.9622 64.6578 55.9658Z" fill="black"/>
<path opacity="0.3" d="M64.854 57.7526L35.613 61.033C35.5788 61.0339 35.5452 61.0418 35.5143 61.0564C35.4833 61.071 35.4557 61.0919 35.4332 61.1179C35.4107 61.1438 35.3938 61.1741 35.3835 61.207C35.3732 61.2398 35.3698 61.2745 35.3735 61.3087C35.3772 61.343 35.3879 61.3761 35.4049 61.406C35.4219 61.4358 35.4449 61.4618 35.4724 61.4823C35.4999 61.5027 35.5313 61.5172 35.5647 61.5247C35.598 61.5323 35.6325 61.5328 35.666 61.5263L64.9093 58.2458C64.9704 58.234 65.0247 58.1993 65.0615 58.1488C65.0983 58.0983 65.1149 58.0357 65.1079 57.9734C65.1009 57.9111 65.0709 57.8538 65.0238 57.8128C64.9767 57.7719 64.9161 57.7504 64.854 57.7526Z" fill="black"/>
<path opacity="0.3" d="M57.4163 60.3863L35.8085 62.8106C35.7762 62.8141 35.7449 62.8239 35.7164 62.8396C35.688 62.8553 35.6628 62.8765 35.6425 62.902C35.6221 62.9275 35.6069 62.9568 35.5978 62.9882C35.5887 63.0197 35.5858 63.0526 35.5893 63.0851C35.5969 63.1511 35.63 63.2113 35.6814 63.2527C35.7328 63.2941 35.7984 63.3133 35.8639 63.3061L57.4716 60.8819C57.5039 60.8782 57.5351 60.8682 57.5636 60.8523C57.592 60.8365 57.617 60.8152 57.6373 60.7896C57.6575 60.764 57.6725 60.7346 57.6815 60.7031C57.6905 60.6717 57.6933 60.6387 57.6896 60.6062C57.686 60.5737 57.6761 60.5422 57.6604 60.5135C57.6446 60.4848 57.6235 60.4596 57.5981 60.4392C57.5727 60.4187 57.5436 60.4036 57.5124 60.3945C57.4812 60.3854 57.4485 60.3827 57.4163 60.3863Z" fill="black"/>
<path opacity="0.3" d="M71.1098 55.0223L68.5305 55.3118C68.1836 55.3508 67.9336 55.666 67.9723 56.0159L68.2593 58.6172C68.2979 58.9671 68.6104 59.2192 68.9574 59.1802L71.5366 58.8908C71.8835 58.8518 72.1335 58.5366 72.0949 58.1867L71.8079 55.5854C71.7692 55.2355 71.4567 54.9834 71.1098 55.0223Z" stroke="#263238" stroke-linecap="round" stroke-linejoin="round"/>
<path d="M68.9863 57.0246L69.8329 57.8319L70.9517 56.1079" stroke="#B6D3F9" stroke-width="3" stroke-linecap="round" stroke-linejoin="round"/>
<path d="M43.5194 39.5102C43.5416 39.2427 43.476 38.9754 43.3325 38.7494L43.0488 38.2422L42.4859 38.5632L42.7927 39.1077C42.945 39.3799 42.8827 39.5474 42.6935 39.6544C42.5044 39.7614 42.329 39.7335 42.1768 39.4613L41.5194 38.2841L40.8135 38.4237L41.5655 39.7614C41.9092 40.3733 42.4075 40.5478 42.9911 40.2267C43.0839 40.173 43.1698 40.1082 43.2472 40.0336C43.2144 39.9569 43.2086 39.8713 43.2309 39.7908C43.2531 39.7104 43.302 39.6401 43.3694 39.5916C43.4146 39.5563 43.4653 39.5288 43.5194 39.5102Z" fill="#B6D3F9"/>
<path d="M40.4508 37.7794L40.5846 38.0121H41.362L41.0229 37.4072C40.8707 37.135 40.9306 36.9628 41.1198 36.8558C41.309 36.7488 41.4866 36.7813 41.6388 37.0559L41.8695 37.463L42.4301 37.1419L42.2225 36.772C41.8787 36.1625 41.3805 35.9856 40.7968 36.3207C40.6629 36.3935 40.5439 36.4914 40.4462 36.6092C40.5788 36.6521 40.7177 36.6718 40.8568 36.6673L40.3032 36.8767C40.2626 37.0291 40.2548 37.1885 40.2803 37.3442C40.3057 37.4998 40.3639 37.6482 40.4508 37.7794Z" fill="#B6D3F9"/>
<path d="M44.7621 35.2992C44.8361 35.2619 44.9133 35.2315 44.9928 35.2085C45.2903 35.0735 45.3572 34.6408 45.3319 34.336L45.0251 33.9521L44.1992 34.4175L44.7159 35.3341C44.7294 35.3201 44.745 35.3084 44.7621 35.2992Z" fill="#B6D3F9"/>
<path d="M48.2806 37.1207L48.8412 36.7996L46.6981 32.9888L46.1653 33.2912C46.336 33.3331 46.4582 33.4145 46.4629 33.5402C46.2968 33.5634 46.0938 33.5402 45.9138 33.5727L46.9934 36.3948L45.6278 34.6778C45.6315 34.7159 45.6259 34.7542 45.6114 34.7895C45.5969 34.8248 45.574 34.856 45.5447 34.8802C45.4825 34.9245 45.3925 34.9245 45.3441 34.9826C45.2956 35.0408 45.3025 35.1106 45.261 35.1618C45.2195 35.2129 45.1549 35.2269 45.1041 35.2641C45.0534 35.3014 44.998 35.3967 44.9404 35.4596C44.9126 35.4891 44.8776 35.5108 44.8389 35.5224L46.3567 38.2212L46.8735 37.9234L45.3579 35.2292L47.3048 37.6768L47.8677 37.3557L46.7304 34.394L48.2806 37.1207Z" fill="#B6D3F9"/>
<path d="M49.6997 33.8031C49.7406 33.8238 49.7771 33.8526 49.8068 33.8877C49.8365 33.9229 49.8589 33.9638 49.8727 34.0078C49.9212 33.7204 49.8593 33.425 49.6997 33.1819L49.4205 32.684C49.0768 32.0745 48.5993 31.9093 48.0042 32.249L47.1299 32.7492L49.2752 36.5624L49.8311 36.2437C49.6512 36.1297 49.4505 36.0319 49.2798 35.9086C49.1997 35.857 49.1338 35.7858 49.0884 35.7016C49.0668 35.6591 49.0579 35.6111 49.0628 35.5637C49.0678 35.5162 49.0862 35.4711 49.116 35.434C49.1551 35.4008 49.2027 35.3794 49.2534 35.3724C49.304 35.3654 49.3556 35.3731 49.4021 35.3945L49.063 34.7896L49.3444 34.629C49.4991 34.5445 49.6337 34.427 49.7389 34.2847C49.6212 34.0963 49.4159 33.6961 49.6997 33.8031ZM49.0376 34.0963L48.7562 34.2568L48.0295 32.9656L48.311 32.805C48.5001 32.698 48.6524 32.7259 48.8046 32.9981L49.1276 33.5705C49.2798 33.831 49.2268 33.9776 49.0376 34.0963Z" fill="#B6D3F9"/>
<path d="M52.8803 34.4986L52.5758 33.9542L51.5977 34.5126L50.1675 31.9697L50.1029 32.0209C50.0612 32.0599 50.0104 32.0879 49.9553 32.1023C49.9275 32.1086 49.8984 32.1045 49.8734 32.0908C49.8484 32.0771 49.8291 32.0548 49.8192 32.0278C49.8112 31.9918 49.8112 31.9545 49.8192 31.9185C49.8196 31.702 49.7517 31.491 49.6254 31.3159L49.1641 31.5858L51.3071 35.3967L52.8803 34.4986Z" fill="#B6D3F9"/>
<path d="M52.6123 33.1658C52.6769 32.996 52.8775 32.9332 52.9906 32.7796C53.0007 32.7639 53.0099 32.7475 53.0183 32.7308L52.7876 32.3399L53.3712 32.0072C53.3605 31.9701 53.3416 31.9359 53.3158 31.9072C53.2321 31.8659 53.1427 31.8377 53.0506 31.8234C53.0363 31.7945 53.0291 31.7625 53.0296 31.7302C53.0301 31.698 53.0383 31.6662 53.0534 31.6378C53.0686 31.6093 53.0902 31.5849 53.1166 31.5666C53.143 31.5483 53.1733 31.5367 53.2051 31.5326C53.2443 31.5326 53.2905 31.5326 53.3205 31.514C53.3415 31.4887 53.3522 31.4562 53.3504 31.4232L53.2974 31.3302L52.4808 31.7955L51.8856 30.7346L52.9098 30.146L52.603 29.6016L50.9883 30.5322L52.5754 33.3543C52.5781 33.2899 52.5906 33.2264 52.6123 33.1658Z" fill="#B6D3F9"/>
<path d="M54.7613 33.4238L54.4545 32.8794L53.4279 33.4657L53.1211 32.9329L52.7428 33.2912L52.6113 33.4192L53.1419 34.3614L54.7613 33.4238Z" fill="#B6D3F9"/>
<path d="M53.9972 28.9964C53.9972 29.0779 53.9395 29.1686 53.8611 29.1756C53.8212 29.1751 53.7816 29.1688 53.7435 29.157C53.6722 29.1583 53.6009 29.1513 53.5312 29.136C53.5162 29.1298 53.5021 29.1211 53.4897 29.1104L52.8115 29.499L53.1183 30.0457L53.7389 29.6898L55.5843 32.9469L56.1771 32.6072L54.3317 29.3501L54.9545 28.9941L54.6477 28.4497L54.0111 28.8126C53.9995 28.8731 54.0041 28.936 53.9972 28.9964Z" fill="#B6D3F9"/>
<path d="M56.5872 31.3044L57.0486 32.1257L57.6714 31.7697C57.6861 31.7285 57.7047 31.6888 57.7268 31.651C57.8639 31.449 58.0486 31.2843 58.2642 31.1718L58.5503 30.9926L58.3611 30.653L57.3346 31.2416L56.7072 30.1248L57.5238 29.6595L57.217 29.1151L56.4003 29.5804L55.8052 28.5125L56.8317 27.9262L56.5249 27.3818L54.9102 28.3125L56.0751 30.3854C56.3565 30.2342 56.4972 30.7786 56.5872 31.3044Z" fill="#B6D3F9"/>
<path d="M44.6408 38.8331C44.7377 38.8494 44.7953 38.9471 44.8715 39.0123C44.8991 39.038 44.9312 39.0585 44.966 39.0728C45.0102 39.055 45.0533 39.0348 45.0952 39.0123C45.6765 38.6796 45.7988 38.1491 45.4574 37.5372L45.4228 37.4768L44.6246 37.4558L44.8853 37.9211C45.0375 38.1933 44.9776 38.3655 44.7884 38.4725C44.5993 38.5795 44.4216 38.5446 44.2694 38.2724L43.116 36.2134C42.9614 35.9412 43.0237 35.7714 43.2129 35.662C43.402 35.5527 43.5773 35.5899 43.7319 35.8621L44.5139 37.2581C44.754 37.1981 45.0002 37.1669 45.2475 37.165L44.3455 35.562C44.0041 34.9525 43.4897 34.7873 42.9061 35.12C42.3224 35.4527 42.2002 35.9854 42.5439 36.595L43.6581 38.5772C43.7285 38.73 43.8337 38.8638 43.9652 38.9678C44.0967 39.0717 44.2508 39.1427 44.4147 39.1751C44.4135 39.1612 44.4135 39.1472 44.4147 39.1333C44.387 38.982 44.4978 38.8052 44.6408 38.8331Z" fill="#B6D3F9"/>
<path d="M52.6059 27.8913L54.4168 26.856C53.8978 27.0002 53.441 27.4376 52.9058 27.3771C52.809 27.3515 52.7073 27.3515 52.6106 27.3771C52.5501 27.4164 52.5065 27.4773 52.4885 27.5476C52.4706 27.6179 52.4796 27.6924 52.5137 27.7563C52.537 27.806 52.5682 27.8516 52.6059 27.8913Z" fill="#B6D3F9"/>
<path d="M48.0647 30.4905C48.0607 30.4502 48.0688 30.4097 48.0878 30.3741C48.1323 30.3898 48.1791 30.3976 48.2262 30.3974L48.8514 30.0414C48.9492 29.9298 49.0608 29.8313 49.1835 29.7483C49.302 29.6844 49.4274 29.6344 49.5572 29.5994L49.6956 29.5575L50.849 28.9014C50.8612 28.8776 50.8776 28.8563 50.8975 28.8386C50.9153 28.8266 50.9347 28.8173 50.9552 28.8107L49.7648 28.4478L49.4442 28.6292L49.4096 28.8851L48.0371 29.625C47.9012 29.7106 47.7499 29.7683 47.5918 29.7948C47.5328 29.8018 47.4732 29.8018 47.4142 29.7948L45.4581 30.9139C45.4736 31.0074 45.4999 31.0987 45.5365 31.1861C45.4217 31.1645 45.3126 31.1194 45.2158 31.0535L44.8145 31.2861C45.1005 31.4769 45.3819 31.6723 45.6564 31.8794L48.0647 30.4905Z" fill="#B6D3F9"/>
<path d="M56.4382 25.7021L55.4924 25.167L55.0449 25.4229C55.3086 25.6964 55.6492 25.8816 56.0207 25.9534L56.4382 25.7021Z" fill="#B6D3F9"/>
<path d="M61.5239 31.3348L57.9529 24.9857C57.814 24.7401 57.5845 24.56 57.3144 24.4846C57.0442 24.4092 56.7555 24.4446 56.5112 24.5832L56.0821 24.8298L56.2459 24.9903C56.4166 25.1625 56.5919 25.337 56.7511 25.5208L56.9679 25.3975C56.998 25.3805 57.0334 25.3762 57.0666 25.3853C57.0999 25.3944 57.1282 25.4163 57.1456 25.4463L60.7188 31.7978C60.7354 31.8284 60.7394 31.8643 60.7299 31.8979C60.7204 31.9314 60.6982 31.9598 60.668 31.9769L55.8076 34.7688C56.2275 34.7944 56.6519 34.7339 57.0717 34.7827C57.223 34.802 57.3731 34.8292 57.5216 34.8642L61.1248 32.8028C61.2472 32.7335 61.3547 32.6403 61.4411 32.5287C61.5275 32.4172 61.5911 32.2894 61.6283 32.1529C61.6654 32.0163 61.6753 31.8737 61.6573 31.7333C61.6394 31.5929 61.5941 31.4574 61.5239 31.3348Z" fill="#B6D3F9"/>
<path d="M39.6415 39.4151L37.9622 36.4232C37.9535 36.4081 37.9479 36.3914 37.9456 36.3741C37.9434 36.3568 37.9445 36.3392 37.949 36.3223C37.9535 36.3054 37.9613 36.2897 37.9718 36.2758C37.9824 36.262 37.9956 36.2504 38.0106 36.2417L42.8549 33.4685C42.8387 33.4313 42.818 33.394 42.8041 33.3568C42.8726 33.3539 42.9411 33.3618 43.0071 33.3801L44.9656 32.261C44.901 32.2401 44.8387 32.2145 44.7765 32.1912L43.8537 31.8213L43.1156 32.2447L43.9183 32.7403C43.6392 32.5681 43.0694 32.5448 42.5781 32.5518L37.5654 35.4298C37.3215 35.5694 37.1425 35.8009 37.0677 36.0736C36.9929 36.3462 37.0283 36.6376 37.1663 36.8839L38.6242 39.4756C38.6911 39.457 38.7603 39.4407 38.8272 39.4291C39.012 39.4023 39.1989 39.3929 39.3855 39.4012C39.471 39.4005 39.5565 39.4052 39.6415 39.4151Z" fill="#B6D3F9"/>
<path d="M45.6255 40.5829C45.7076 40.6572 45.8011 40.7177 45.9023 40.7621C46.0061 40.8086 46.1445 40.9203 46.0638 40.9947C45.6901 41.1669 45.2287 41.0389 44.8619 41.2274C44.6612 41.3251 44.4675 41.5182 44.2529 41.46C44.5124 41.6189 44.7459 41.8175 44.945 42.0487L54.1053 36.8093C54.1053 36.7721 54.1168 36.7348 54.1237 36.6953C54.1239 36.6221 54.1407 36.5498 54.1728 36.4841C54.2048 36.4184 54.2513 36.361 54.3087 36.3161C54.3661 36.2712 54.4328 36.2402 54.5039 36.2252C54.575 36.2103 54.6485 36.2119 54.7189 36.23C54.8377 36.2247 54.9566 36.2372 55.0718 36.2672L56.2137 35.6134C56.057 35.3411 55.8714 35.0868 55.6601 34.855L45.6255 40.5829Z" fill="#B6D3F9"/>
<path d="M44.1423 42.1207C43.9213 42.0484 43.7178 41.9303 43.5448 41.774L41.7178 42.821C41.703 42.8297 41.6866 42.8353 41.6696 42.8375C41.6527 42.8398 41.6354 42.8386 41.6189 42.834C41.6023 42.8295 41.5869 42.8217 41.5734 42.811C41.5599 42.8004 41.5486 42.7872 41.5402 42.7721L39.9254 39.9174C39.7707 39.8635 39.6061 39.8444 39.4433 39.8616C39.2565 39.8988 39.0927 40.1175 39.1942 40.2781C39.2895 40.2805 39.3825 40.3085 39.4636 40.3592C39.5447 40.4099 39.6109 40.4815 39.6555 40.5665C39.556 40.6464 39.4467 40.7128 39.3303 40.7643L40.7144 43.2328C40.7831 43.3574 40.8759 43.467 40.9873 43.555C41.0986 43.6429 41.2263 43.7076 41.3627 43.7451C41.4992 43.7826 41.6417 43.7922 41.782 43.7733C41.9222 43.7545 42.0572 43.7075 42.1792 43.6353L44.5736 42.2649L44.546 42.2486C44.4138 42.1987 44.279 42.156 44.1423 42.1207Z" fill="#B6D3F9"/>
<g opacity="0.2">
<path opacity="0.2" d="M43.5194 39.5102C43.5416 39.2427 43.476 38.9754 43.3325 38.7494L43.0488 38.2422L42.4859 38.5632L42.7927 39.1077C42.945 39.3799 42.8827 39.5474 42.6935 39.6544C42.5044 39.7614 42.329 39.7335 42.1768 39.4613L41.5194 38.2841L40.8135 38.4237L41.5655 39.7614C41.9092 40.3733 42.4075 40.5478 42.9911 40.2267C43.0839 40.173 43.1698 40.1082 43.2472 40.0336C43.2144 39.9569 43.2086 39.8713 43.2309 39.7908C43.2531 39.7104 43.302 39.6401 43.3694 39.5916C43.4146 39.5563 43.4653 39.5288 43.5194 39.5102Z" fill="black"/>
<path opacity="0.2" d="M40.4508 37.7794L40.5846 38.0121H41.362L41.0229 37.4072C40.8707 37.135 40.9306 36.9628 41.1198 36.8558C41.309 36.7488 41.4866 36.7813 41.6388 37.0559L41.8695 37.463L42.4301 37.1419L42.2225 36.772C41.8787 36.1625 41.3805 35.9856 40.7968 36.3207C40.6629 36.3935 40.5439 36.4914 40.4462 36.6092C40.5788 36.6521 40.7177 36.6718 40.8568 36.6673L40.3032 36.8767C40.2626 37.0291 40.2548 37.1885 40.2803 37.3442C40.3057 37.4998 40.3639 37.6482 40.4508 37.7794Z" fill="black"/>
<path opacity="0.2" d="M44.7621 35.2992C44.8361 35.2619 44.9133 35.2315 44.9928 35.2085C45.2903 35.0735 45.3572 34.6408 45.3319 34.336L45.0251 33.9521L44.1992 34.4175L44.7159 35.3341C44.7294 35.3201 44.745 35.3084 44.7621 35.2992Z" fill="black"/>
<path opacity="0.2" d="M48.2806 37.1207L48.8412 36.7996L46.6981 32.9888L46.1653 33.2912C46.336 33.3331 46.4582 33.4145 46.4629 33.5402C46.2968 33.5634 46.0938 33.5402 45.9138 33.5727L46.9934 36.3948L45.6278 34.6778C45.6315 34.7159 45.6259 34.7542 45.6114 34.7895C45.5969 34.8248 45.574 34.856 45.5447 34.8802C45.4825 34.9245 45.3925 34.9245 45.3441 34.9826C45.2956 35.0408 45.3025 35.1106 45.261 35.1618C45.2195 35.2129 45.1549 35.2269 45.1041 35.2641C45.0534 35.3014 44.998 35.3967 44.9404 35.4596C44.9126 35.4891 44.8776 35.5108 44.8389 35.5224L46.3567 38.2212L46.8735 37.9234L45.3579 35.2292L47.3048 37.6768L47.8677 37.3557L46.7304 34.394L48.2806 37.1207Z" fill="black"/>
<path opacity="0.2" d="M49.6997 33.8031C49.7406 33.8238 49.7771 33.8526 49.8068 33.8877C49.8365 33.9229 49.8589 33.9638 49.8727 34.0078C49.9212 33.7204 49.8593 33.425 49.6997 33.1819L49.4205 32.684C49.0768 32.0745 48.5993 31.9093 48.0042 32.249L47.1299 32.7492L49.2752 36.5624L49.8311 36.2437C49.6512 36.1297 49.4505 36.0319 49.2798 35.9086C49.1997 35.857 49.1338 35.7858 49.0884 35.7016C49.0668 35.6591 49.0579 35.6111 49.0628 35.5637C49.0678 35.5162 49.0862 35.4711 49.116 35.434C49.1551 35.4008 49.2027 35.3794 49.2534 35.3724C49.304 35.3654 49.3556 35.3731 49.4021 35.3945L49.063 34.7896L49.3444 34.629C49.4991 34.5445 49.6337 34.427 49.7389 34.2847C49.6212 34.0963 49.4159 33.6961 49.6997 33.8031ZM49.0376 34.0963L48.7562 34.2568L48.0295 32.9656L48.311 32.805C48.5001 32.698 48.6524 32.7259 48.8046 32.9981L49.1276 33.5705C49.2798 33.831 49.2268 33.9776 49.0376 34.0963Z" fill="black"/>
<path opacity="0.2" d="M52.8803 34.4986L52.5758 33.9542L51.5977 34.5126L50.1675 31.9697L50.1029 32.0209C50.0612 32.0599 50.0104 32.0879 49.9553 32.1023C49.9275 32.1086 49.8984 32.1045 49.8734 32.0908C49.8484 32.0771 49.8291 32.0548 49.8192 32.0278C49.8112 31.9918 49.8112 31.9545 49.8192 31.9185C49.8196 31.702 49.7517 31.491 49.6254 31.3159L49.1641 31.5858L51.3071 35.3967L52.8803 34.4986Z" fill="black"/>
<path opacity="0.2" d="M52.6123 33.1658C52.6769 32.996 52.8775 32.9332 52.9906 32.7796C53.0007 32.7639 53.0099 32.7475 53.0183 32.7308L52.7876 32.3399L53.3712 32.0072C53.3605 31.9701 53.3416 31.9359 53.3158 31.9072C53.2321 31.8659 53.1427 31.8377 53.0506 31.8234C53.0363 31.7945 53.0291 31.7625 53.0296 31.7302C53.0301 31.698 53.0383 31.6662 53.0534 31.6378C53.0686 31.6093 53.0902 31.5849 53.1166 31.5666C53.143 31.5483 53.1733 31.5367 53.2051 31.5326C53.2443 31.5326 53.2905 31.5326 53.3205 31.514C53.3415 31.4887 53.3522 31.4562 53.3504 31.4232L53.2974 31.3302L52.4808 31.7955L51.8856 30.7346L52.9098 30.146L52.603 29.6016L50.9883 30.5322L52.5754 33.3543C52.5781 33.2899 52.5906 33.2264 52.6123 33.1658Z" fill="black"/>
<path opacity="0.2" d="M54.7613 33.4238L54.4545 32.8794L53.4279 33.4657L53.1211 32.9329L52.7428 33.2912L52.6113 33.4192L53.1419 34.3614L54.7613 33.4238Z" fill="black"/>
<path opacity="0.2" d="M53.9972 28.9964C53.9972 29.0779 53.9395 29.1686 53.8611 29.1756C53.8212 29.1751 53.7816 29.1688 53.7435 29.157C53.6722 29.1583 53.6009 29.1513 53.5312 29.136C53.5162 29.1298 53.5021 29.1211 53.4897 29.1104L52.8115 29.499L53.1183 30.0457L53.7389 29.6898L55.5843 32.9469L56.1771 32.6072L54.3317 29.3501L54.9545 28.9941L54.6477 28.4497L54.0111 28.8126C53.9995 28.8731 54.0041 28.936 53.9972 28.9964Z" fill="black"/>
<path opacity="0.2" d="M56.5872 31.3044L57.0486 32.1257L57.6714 31.7697C57.6861 31.7285 57.7047 31.6888 57.7268 31.651C57.8639 31.449 58.0486 31.2843 58.2642 31.1718L58.5503 30.9926L58.3611 30.653L57.3346 31.2416L56.7072 30.1248L57.5238 29.6595L57.217 29.1151L56.4003 29.5804L55.8052 28.5125L56.8317 27.9262L56.5249 27.3818L54.9102 28.3125L56.0751 30.3854C56.3565 30.2342 56.4972 30.7786 56.5872 31.3044Z" fill="black"/>
<path opacity="0.2" d="M44.6408 38.8331C44.7377 38.8494 44.7953 38.9471 44.8715 39.0123C44.8991 39.038 44.9312 39.0585 44.966 39.0728C45.0102 39.055 45.0533 39.0348 45.0952 39.0123C45.6765 38.6796 45.7988 38.1491 45.4574 37.5372L45.4228 37.4768L44.6246 37.4558L44.8853 37.9211C45.0375 38.1933 44.9776 38.3655 44.7884 38.4725C44.5993 38.5795 44.4216 38.5446 44.2694 38.2724L43.116 36.2134C42.9614 35.9412 43.0237 35.7714 43.2129 35.662C43.402 35.5527 43.5773 35.5899 43.7319 35.8621L44.5139 37.2581C44.754 37.1981 45.0002 37.1669 45.2475 37.165L44.3455 35.562C44.0041 34.9525 43.4897 34.7873 42.9061 35.12C42.3224 35.4527 42.2002 35.9854 42.5439 36.595L43.6581 38.5772C43.7285 38.73 43.8337 38.8638 43.9652 38.9678C44.0967 39.0717 44.2508 39.1427 44.4147 39.1751C44.4135 39.1612 44.4135 39.1472 44.4147 39.1333C44.387 38.982 44.4978 38.8052 44.6408 38.8331Z" fill="black"/>
<path opacity="0.2" d="M52.6059 27.8913L54.4168 26.856C53.8978 27.0002 53.441 27.4376 52.9058 27.3771C52.809 27.3515 52.7073 27.3515 52.6106 27.3771C52.5501 27.4164 52.5065 27.4773 52.4885 27.5476C52.4706 27.6179 52.4796 27.6924 52.5137 27.7563C52.537 27.806 52.5682 27.8516 52.6059 27.8913Z" fill="black"/>
<path opacity="0.2" d="M48.0647 30.4905C48.0607 30.4502 48.0688 30.4097 48.0878 30.3741C48.1323 30.3898 48.1791 30.3976 48.2262 30.3974L48.8514 30.0414C48.9492 29.9298 49.0608 29.8313 49.1835 29.7483C49.302 29.6844 49.4274 29.6344 49.5572 29.5994L49.6956 29.5575L50.849 28.9014C50.8612 28.8776 50.8776 28.8563 50.8975 28.8386C50.9153 28.8266 50.9347 28.8173 50.9552 28.8107L49.7648 28.4478L49.4442 28.6292L49.4096 28.8851L48.0371 29.625C47.9012 29.7106 47.7499 29.7683 47.5918 29.7948C47.5328 29.8018 47.4732 29.8018 47.4142 29.7948L45.4581 30.9139C45.4736 31.0074 45.4999 31.0987 45.5365 31.1861C45.4217 31.1645 45.3126 31.1194 45.2158 31.0535L44.8145 31.2861C45.1005 31.4769 45.3819 31.6723 45.6564 31.8794L48.0647 30.4905Z" fill="black"/>
<path opacity="0.2" d="M56.4382 25.7021L55.4924 25.167L55.0449 25.4229C55.3086 25.6964 55.6492 25.8816 56.0207 25.9534L56.4382 25.7021Z" fill="black"/>
<path opacity="0.2" d="M61.5239 31.3348L57.9529 24.9857C57.814 24.7401 57.5845 24.56 57.3144 24.4846C57.0442 24.4092 56.7555 24.4446 56.5112 24.5832L56.0821 24.8298L56.2459 24.9903C56.4166 25.1625 56.5919 25.337 56.7511 25.5208L56.9679 25.3975C56.998 25.3805 57.0334 25.3762 57.0666 25.3853C57.0999 25.3944 57.1282 25.4163 57.1456 25.4463L60.7188 31.7978C60.7354 31.8284 60.7394 31.8643 60.7299 31.8979C60.7204 31.9314 60.6982 31.9598 60.668 31.9769L55.8076 34.7688C56.2275 34.7944 56.6519 34.7339 57.0717 34.7827C57.223 34.802 57.3731 34.8292 57.5216 34.8642L61.1248 32.8028C61.2472 32.7335 61.3547 32.6403 61.4411 32.5287C61.5275 32.4172 61.5911 32.2894 61.6283 32.1529C61.6654 32.0163 61.6753 31.8737 61.6573 31.7333C61.6394 31.5929 61.5941 31.4574 61.5239 31.3348Z" fill="black"/>
<path opacity="0.2" d="M39.6415 39.4151L37.9622 36.4232C37.9535 36.4081 37.9479 36.3914 37.9456 36.3741C37.9434 36.3568 37.9445 36.3392 37.949 36.3223C37.9535 36.3054 37.9613 36.2897 37.9718 36.2758C37.9824 36.262 37.9956 36.2504 38.0106 36.2417L42.8549 33.4685C42.8387 33.4313 42.818 33.394 42.8041 33.3568C42.8726 33.3539 42.9411 33.3618 43.0071 33.3801L44.9656 32.261C44.901 32.2401 44.8387 32.2145 44.7765 32.1912L43.8537 31.8213L43.1156 32.2447L43.9183 32.7403C43.6392 32.5681 43.0694 32.5448 42.5781 32.5518L37.5654 35.4298C37.3215 35.5694 37.1425 35.8009 37.0677 36.0736C36.9929 36.3462 37.0283 36.6376 37.1663 36.8839L38.6242 39.4756C38.6911 39.457 38.7603 39.4407 38.8272 39.4291C39.012 39.4023 39.1989 39.3929 39.3855 39.4012C39.471 39.4005 39.5565 39.4052 39.6415 39.4151Z" fill="black"/>
<path opacity="0.2" d="M45.6255 40.5829C45.7076 40.6572 45.8011 40.7177 45.9023 40.7621C46.0061 40.8086 46.1445 40.9203 46.0638 40.9947C45.6901 41.1669 45.2287 41.0389 44.8619 41.2274C44.6612 41.3251 44.4675 41.5182 44.2529 41.46C44.5124 41.6189 44.7459 41.8175 44.945 42.0487L54.1053 36.8093C54.1053 36.7721 54.1168 36.7348 54.1237 36.6953C54.1239 36.6221 54.1407 36.5498 54.1728 36.4841C54.2048 36.4184 54.2513 36.361 54.3087 36.3161C54.3661 36.2712 54.4328 36.2402 54.5039 36.2252C54.575 36.2103 54.6485 36.2119 54.7189 36.23C54.8377 36.2247 54.9566 36.2372 55.0718 36.2672L56.2137 35.6134C56.057 35.3411 55.8714 35.0868 55.6601 34.855L45.6255 40.5829Z" fill="black"/>
<path opacity="0.2" d="M44.1423 42.1207C43.9213 42.0484 43.7178 41.9303 43.5448 41.774L41.7178 42.821C41.703 42.8297 41.6866 42.8353 41.6696 42.8375C41.6527 42.8398 41.6354 42.8386 41.6189 42.834C41.6023 42.8295 41.5869 42.8217 41.5734 42.811C41.5599 42.8004 41.5486 42.7872 41.5402 42.7721L39.9254 39.9174C39.7707 39.8635 39.6061 39.8444 39.4433 39.8616C39.2565 39.8988 39.0927 40.1175 39.1942 40.2781C39.2895 40.2805 39.3825 40.3085 39.4636 40.3592C39.5447 40.4099 39.6109 40.4815 39.6555 40.5665C39.556 40.6464 39.4467 40.7128 39.3303 40.7643L40.7144 43.2328C40.7831 43.3574 40.8759 43.467 40.9873 43.555C41.0986 43.6429 41.2263 43.7076 41.3627 43.7451C41.4992 43.7826 41.6417 43.7922 41.782 43.7733C41.9222 43.7545 42.0572 43.7075 42.1792 43.6353L44.5736 42.2649L44.546 42.2486C44.4138 42.1987 44.279 42.156 44.1423 42.1207Z" fill="black"/>
</g>
<path opacity="0.3" d="M33.7547 33.8125C35.1618 34.8548 36.3383 39.8615 36.4444 44.4518C36.5505 49.0421 38.7512 56.7825 39.0142 58.0504C39.2772 59.3184 39.1803 61.1471 40.8135 58.6018C42.4467 56.0566 47.2241 51.6385 49.2149 53.1065C51.2056 54.5746 47.8538 59.5092 46.0384 62.1661C44.2229 64.823 44.0384 69.5017 41.8631 72.4308C39.6878 75.3599 37.7224 79.7827 35.5909 79.7152C33.4594 79.6478 19.3418 90.2103 19.3418 90.2103L19.6186 75.7531L32.306 54.8142L33.7547 33.8125Z" fill="black" fill-opacity="0.7"/>
<path d="M50.3724 53.8164C50.3009 54.27 47.8165 57.59 46.3563 60.0748C44.8961 62.5595 43.5282 66.8846 43.1614 67.5197C42.7946 68.1549 38.3171 72.1216 37.0899 73.7804C35.8627 75.4393 33.6712 76.1721 31.4821 77.7356C30.0749 78.7406 25.6897 83.9265 22.7347 87.5071C21.0922 89.4963 19.8904 90.9969 19.8904 90.9969L1 86.0297C1 86.0297 2.56401 84.7292 4.62168 82.9749H4.63552L4.65628 82.9587C8.03805 80.0621 12.7508 75.9744 14.0519 74.4319C16.1488 71.9471 19.0692 68.9947 19.0692 68.9947C18.8915 65.5445 19.2537 62.2757 18.9331 61.0333C18.767 60.3842 18.4717 56.692 18.241 55.5566C17.6805 52.6554 15.2422 49.6495 14.9677 48.4653C14.6932 47.2811 11.4752 42.2395 13.0461 41.3089C13.3317 41.1275 13.6712 41.0526 14.0057 41.0971C16.128 41.3926 17.8765 46.5622 19.0807 47.879C19.5967 48.5024 20.064 49.1651 20.4786 49.8612C21.429 51.3805 22.361 53.0882 22.361 53.0882C22.7254 51.6154 20.0795 46.3691 19.3483 41.3996C18.617 36.4301 16.5202 33.7615 19.3483 33.4544C19.5807 33.4282 19.8159 33.4487 20.0403 33.5149C22.0311 34.1012 22.8938 38.2727 24.0841 42.3209C24.1949 42.6931 25.1014 45.3663 25.8073 47.4277C26.2687 48.7771 26.6378 49.8636 26.6378 49.8636C26.7277 47.3323 25.9457 44.9778 25.8166 42.6838C25.7612 41.7649 26.0472 38.0819 25.6874 34.4013C25.3783 31.2954 25.519 30.0367 26.7231 29.7925C26.9811 29.7456 27.244 29.7331 27.5051 29.7552C29.5928 29.8878 30.3333 35.4832 30.3333 37.6655C30.3333 38.9334 30.5478 41.4089 30.7277 43.2655C30.8592 44.6079 30.9722 45.6269 30.9722 45.6269C30.9722 45.6269 31.3367 42.5442 31.0645 35.895C31.0022 34.4386 31.0968 33.3963 31.6643 32.9752C31.9757 32.7425 32.4255 32.703 33.0714 32.8798C34.8961 33.3777 35.489 40.1968 35.489 42.7746C35.489 45.3524 36.9492 49.7682 37.2237 53.244C37.4982 56.7199 38.6931 60.9914 38.6931 60.9914C38.6931 60.9914 39.369 61.2683 39.8234 61.1775C40.2779 61.0868 43.429 56.3918 43.429 56.3918C44.8961 53.1789 47.7519 52.2041 49.3067 52.5647C50.0218 52.7299 50.4832 53.1742 50.3724 53.8164Z" fill="white"/>
<path d="M19.8907 91C19.8907 91 29.2909 79.3114 31.4823 77.7387C33.6738 76.1659 35.8652 75.4377 37.0902 73.7836C38.3151 72.1294 42.7972 68.1673 43.1617 67.5228C43.5261 66.8784 44.8964 62.5533 46.3566 60.0779C47.8168 57.6025 50.3012 54.2615 50.3727 53.8195C50.691 51.7931 45.5815 51.7023 43.4362 56.3973C43.4362 56.3973 40.2874 61.0899 39.8306 61.183C39.3739 61.2761 38.7003 60.9969 38.7003 60.9969C38.7003 60.9969 37.5054 56.7277 37.2309 53.2495C36.9564 49.7713 35.4962 45.3509 35.4962 42.78C35.4962 40.2092 34.9033 33.3831 33.0786 32.8852C31.254 32.3874 30.9771 33.6483 31.0717 35.9097C31.3439 42.559 30.9794 45.6417 30.9794 45.6417C30.9794 45.6417 30.3405 39.8649 30.3405 37.6802C30.3405 35.4956 29.6 29.9003 27.5123 29.77C25.5954 29.6467 25.3278 30.7332 25.6946 34.4231C26.0613 38.113 25.7684 41.7866 25.8237 42.7056C25.9598 45.0065 26.7465 47.3587 26.645 49.8853C26.645 49.8853 24.2713 42.9545 24.089 42.338C22.7672 37.8198 21.8514 33.1667 19.3416 33.4459C16.5135 33.753 18.6127 36.4216 19.3416 41.3911C20.0706 46.3606 22.7188 51.6069 22.3543 53.0796C22.3543 53.0796 20.1652 49.071 19.074 47.8705C17.69 46.3606 15.6 39.7811 13.0441 41.3004C11.4731 42.231 14.7004 47.2889 14.9726 48.4731C15.2448 49.6573 17.6854 52.6609 18.2459 55.5644C18.4766 56.6997 18.7649 60.392 18.9379 61.0411C19.2586 62.2835 18.8964 65.5523 19.074 69.0025C19.074 69.0025 16.1536 71.9479 14.0568 74.4327C11.9599 76.9174 1.00488 86.0305 1.00488 86.0305" stroke="#263238" stroke-linecap="round" stroke-linejoin="round"/>
<path d="M38.7002 60.9937C39.1212 62.0419 39.1212 63.2142 38.7002 64.2625" stroke="#263238" stroke-linecap="round" stroke-linejoin="round"/>
<path d="M39.4678 61.189C39.7296 61.3829 39.9237 61.6557 40.0219 61.9681C40.1202 62.2804 40.1176 62.6161 40.0145 62.9269" stroke="#263238" stroke-linecap="round" stroke-linejoin="round"/>
<path d="M30.9795 45.6245C30.9795 45.6245 31.7107 50.8243 31.3901 51.7899" stroke="#263238" stroke-linecap="round" stroke-linejoin="round"/>
<path d="M26.6445 49.8589C26.7232 50.3614 26.7232 50.8732 26.6445 51.3758" stroke="#263238" stroke-linecap="round" stroke-linejoin="round"/>
<path d="M22.3564 53.0786C22.3564 53.0786 22.4932 53.8627 22.3564 54.0465" stroke="#263238" stroke-linecap="round" stroke-linejoin="round"/>
<path d="M45.4883 57.4966C45.4883 57.4966 46.3141 57.9479 46.584 58.6017" stroke="#263238" stroke-linecap="round" stroke-linejoin="round"/>
<path d="M26.6748 35.8925C26.9425 35.9574 27.222 35.9532 27.4877 35.8804C27.7534 35.8076 27.9966 35.6686 28.195 35.4761" stroke="#263238" stroke-linecap="round" stroke-linejoin="round"/>
<path d="M26.9531 43.3701C26.9531 43.3701 28.5956 43.9194 29.1907 43.3701" stroke="#263238" stroke-linecap="round" stroke-linejoin="round"/>
<path d="M32.3027 44.9791C32.3027 44.9791 33.3962 44.5666 34.1274 44.796" stroke="#263238" stroke-linecap="round" stroke-linejoin="round"/>
<path d="M21.8535 46.4529C21.8535 46.4529 22.7209 45.3013 23.406 45.6247" stroke="#263238" stroke-linecap="round" stroke-linejoin="round"/>
<path d="M18.2945 49.8589C18.2945 49.8589 17.5194 50.2265 17.291 50.6173" stroke="#263238" stroke-linecap="round" stroke-linejoin="round"/>
<path d="M19.0693 68.9946C19.2595 68.7793 19.4279 68.5455 19.5722 68.2966C19.7083 68.0198 19.5261 65.0744 19.5722 63.1782" stroke="#263238" stroke-linecap="round" stroke-linejoin="round"/>
<path d="M32.986 53.0786C32.4393 54.6444 33.0321 56.6219 32.986 57.499C32.9398 58.3762 32.7553 62.3848 32.7553 62.3848" stroke="#263238" stroke-linecap="round" stroke-linejoin="round"/>
<path d="M28.0129 53.0786C27.2839 54.321 27.5123 55.9775 27.7407 56.8011C27.969 57.6247 27.766 60.9889 27.766 60.9889" stroke="#263238" stroke-linecap="round" stroke-linejoin="round"/>
<path d="M20.1648 57.0361C20.1044 57.8464 20.2639 58.6579 20.6262 59.3836" stroke="#263238" stroke-linecap="round" stroke-linejoin="round"/>
<path d="M24.6818 54.5981C24.2712 56.1174 24.8202 56.806 24.8663 57.0364" stroke="#263238" stroke-linecap="round" stroke-linejoin="round"/>
<path opacity="0.3" d="M61.7453 44.5662L60.9679 40.0155C60.9336 39.8133 60.9402 39.6062 60.9872 39.4067C61.0343 39.2071 61.1208 39.0193 61.2417 38.8543C61.3626 38.6894 61.5153 38.5508 61.6906 38.4469C61.866 38.3429 62.0603 38.2759 62.262 38.2496L64.0037 38.017C64.0037 38.017 63.4224 36.8281 65.2932 33.3639C67.164 29.8997 76.1582 20.6982 82.9771 36.1557C89.796 51.6133 96.0267 83.1124 96.0267 83.1124C96.0267 83.1124 77.6207 61.4941 77.0348 60.3867C76.4489 59.2793 70.8456 59.9423 69.5515 56.9713C68.2574 54.0003 65.54 45.5224 65.54 45.5224L63.4362 45.8132C63.0492 45.866 62.657 45.7657 62.3417 45.5332C62.0265 45.3007 61.8127 44.9542 61.7453 44.5662Z" fill="black" fill-opacity="0.7"/>
<path d="M77.9664 34.1246L74.4347 34.7713L69.5258 35.6717L63.0968 36.8513C62.9735 36.8741 62.8469 36.8721 62.7243 36.8455C62.6018 36.8189 62.4856 36.7682 62.3825 36.6962C62.2795 36.6242 62.1915 36.5324 62.1236 36.4261C62.0558 36.3198 62.0094 36.201 61.9872 36.0765L60.5755 28.2477C60.531 27.9967 60.5869 27.7381 60.7308 27.5284C60.8747 27.3188 61.095 27.1751 61.3436 27.1286L65.0829 26.4307L70.5224 25.4349L76.2132 24.3903C76.3366 24.3675 76.4631 24.3694 76.5857 24.396C76.7083 24.4226 76.8244 24.4734 76.9275 24.5454C77.0306 24.6173 77.1186 24.7091 77.1864 24.8155C77.2542 24.9218 77.3006 25.0406 77.3228 25.165L78.7346 32.9939C78.7589 33.1191 78.7582 33.2479 78.7326 33.3729C78.7071 33.4978 78.6571 33.6164 78.5856 33.7216C78.514 33.8269 78.4225 33.9167 78.3162 33.9859C78.2099 34.0551 78.091 34.1022 77.9664 34.1246Z" fill="#B6D3F9"/>
<path opacity="0.3" d="M75.4688 28.9272L74.4353 34.7715L69.5264 35.6719C68.1055 35.0414 65.7618 33.9432 65.2935 33.3453C64.7352 32.6473 64.8137 28.534 65.0836 26.4308L70.523 25.4351C72.4399 26.7682 75.4688 28.9272 75.4688 28.9272Z" fill="black" fill-opacity="0.7"/>
<path opacity="0.3" d="M64.0726 36.6723L63.0968 36.8515C62.9735 36.8743 62.8469 36.8724 62.7243 36.8457C62.6018 36.8191 62.4856 36.7684 62.3825 36.6964C62.2795 36.6244 62.1915 36.5327 62.1236 36.4263C62.0558 36.32 62.0094 36.2012 61.9872 36.0767L60.5755 28.2479C60.531 27.9969 60.5869 27.7383 60.7308 27.5287C60.8747 27.319 61.095 27.1753 61.3436 27.1289L62.3171 26.9497C62.0686 26.9961 61.8485 27.1399 61.7049 27.3497C61.5614 27.5594 61.5061 27.818 61.5512 28.0688L62.963 35.8976C62.9852 36.022 63.0316 36.1408 63.0994 36.2472C63.1673 36.3535 63.2552 36.4453 63.3583 36.5173C63.4614 36.5892 63.5775 36.64 63.7001 36.6666C63.8227 36.6932 63.9492 36.6952 64.0726 36.6723Z" fill="black" fill-opacity="0.7"/>
<path d="M77.9664 34.1246L74.4347 34.7713L69.5258 35.6717L63.0968 36.8513C62.9735 36.8741 62.8469 36.8721 62.7243 36.8455C62.6018 36.8189 62.4856 36.7682 62.3825 36.6962C62.2795 36.6242 62.1915 36.5324 62.1236 36.4261C62.0558 36.3198 62.0094 36.201 61.9872 36.0765L60.5755 28.2477C60.531 27.9967 60.5869 27.7381 60.7308 27.5284C60.8747 27.3188 61.095 27.1751 61.3436 27.1286L65.0829 26.4307L70.5224 25.4349L76.2132 24.3903C76.3366 24.3675 76.4631 24.3694 76.5857 24.396C76.7083 24.4226 76.8244 24.4734 76.9275 24.5454C77.0306 24.6173 77.1186 24.7091 77.1864 24.8155C77.2542 24.9218 77.3006 25.0406 77.3228 25.165L78.7346 32.9939C78.7589 33.1191 78.7582 33.2479 78.7326 33.3729C78.7071 33.4978 78.6571 33.6164 78.5856 33.7216C78.514 33.8269 78.4225 33.9167 78.3162 33.9859C78.2099 34.0551 78.091 34.1022 77.9664 34.1246V34.1246Z" stroke="#263238" stroke-linecap="round" stroke-linejoin="round"/>
<path d="M76.9174 23.9768L62.1078 26.7202C61.5909 26.8159 61.2488 27.3162 61.3438 27.8375L62.7634 35.6328C62.8584 36.1542 63.3544 36.4992 63.8712 36.4034L78.6809 33.66C79.1977 33.5642 79.5398 33.064 79.4449 32.5427L78.0252 24.7473C77.9303 24.226 77.4343 23.881 76.9174 23.9768Z" stroke="#263238" stroke-width="0.996394" stroke-linecap="round" stroke-linejoin="round"/>
<path d="M76.5036 24.918L62.5477 27.4759C62.297 27.5218 62.1307 27.7641 62.1762 28.0169L63.5662 35.731C63.6118 35.9838 63.852 36.1516 64.1027 36.1056L78.0586 33.5477C78.3093 33.5017 78.4756 33.2595 78.43 33.0067L77.04 25.2926C76.9945 25.0397 76.7543 24.872 76.5036 24.918Z" stroke="#263238" stroke-linecap="round" stroke-linejoin="round"/>
<path d="M78.9418 33.9457L77.973 34.1225C78.2204 34.0756 78.4394 33.9318 78.582 33.7225C78.7247 33.5133 78.7794 33.2556 78.7342 33.0057L77.3225 25.1769C77.3002 25.0525 77.2539 24.9337 77.186 24.8273C77.1182 24.721 77.0302 24.6292 76.9271 24.5573C76.8241 24.4853 76.7079 24.4345 76.5853 24.4079C76.4628 24.3813 76.3362 24.3794 76.2129 24.4022L77.1887 24.223C77.4376 24.1782 77.6939 24.2345 77.9018 24.3797C78.1097 24.5248 78.2522 24.747 78.2982 24.9978L79.71 32.8266C79.7544 33.0776 79.6986 33.3362 79.5547 33.5459C79.4108 33.7555 79.1904 33.8993 78.9418 33.9457V33.9457Z" stroke="#263238" stroke-linecap="round" stroke-linejoin="round"/>
<path d="M106.999 59.0232L97.447 84.8665C97.447 84.8665 93.4516 77.1889 89.7608 70.0836C86.8127 64.4022 84.0584 59.0744 83.687 58.2903C82.8542 56.5245 80.0099 52.8253 80.0099 52.8253C80.0099 52.8253 77.0918 51.1409 75.7562 48.2071C74.4205 45.2733 72.9511 34.7783 72.9511 34.7783C72.9511 34.7783 69.1149 33.3218 68.1991 32.6844C67.2833 32.0469 66.4482 26.1561 66.4482 25.4837C66.4482 24.8113 67.371 23.4643 67.371 23.4643C67.371 23.4643 67.1657 22.4778 68.3375 21.4821C68.7205 21.1649 69.1452 20.9027 69.5993 20.7027H69.6224C69.6224 20.7027 69.4702 18.4762 70.6189 17.8271C70.6738 17.7958 70.7308 17.7685 70.7896 17.7456C71.8139 17.3478 75.1726 16.8336 75.1726 16.8336C75.6474 16.4128 76.2001 16.091 76.7989 15.8867C77.394 15.7215 80.6604 16.487 82.4851 16.9406C83.2187 17.1221 83.7193 17.2524 83.7193 17.2524C83.7193 17.2524 86.8057 17.3943 87.3894 17.7456C87.7965 18.0148 88.1685 18.3345 88.4966 18.6972L88.5543 18.7647C88.5543 18.7647 91.3063 19.3416 91.8899 20.3583C92.4736 21.375 92.7227 26.419 92.3075 29.6971C91.8922 32.9752 92.6373 38.538 92.6373 38.538C92.6373 38.538 93.4978 42.8351 94.1644 44.466C94.8311 46.0969 106.999 59.0232 106.999 59.0232Z" fill="white"/>
<path opacity="0.4" d="M77.7988 21.3242C77.7988 21.3242 79.0284 22.2548 79.3928 21.3242C79.6021 20.8262 79.7351 20.2991 79.7873 19.7608C79.7873 19.7608 80.2602 19.5421 80.71 20.6914C81.1598 21.8407 85.6696 22.1338 86.7261 22.7224C87.7827 23.3111 88.2025 22.7224 88.2025 22.7224C88.4486 22.9264 88.6174 23.2098 88.6804 23.5247C88.7435 23.8396 88.6969 24.1668 88.5485 24.4511C88.0364 25.519 89.4874 25.6143 90.0502 24.828C90.6131 24.0416 90.1771 27.0777 88.7861 27.3872C88.7861 27.3872 88.8253 28.7133 87.9303 29.623H88.6892C88.6892 29.623 86.6685 31.2399 86.131 31.3283C85.5935 31.4167 88.131 32.3218 87.6604 32.5126C87.1898 32.7033 85.8565 32.687 85.8565 32.687C85.8565 32.687 86.7192 33.2896 86.7261 33.6875C86.7331 34.0853 86.3178 34.3854 86.131 34.0527C85.9441 33.72 84.4539 28.9553 83.7112 27.1941C82.9684 25.4329 79.9003 24.0393 77.7988 21.3242Z" fill="#B6D3F9"/>
<path opacity="0.4" d="M88.4955 18.6809C85.9073 17.9666 82.4355 16.9499 82.4355 16.9499L82.484 16.9243C83.2176 17.1058 83.7181 17.2361 83.7181 17.2361C83.7181 17.2361 86.8046 17.378 87.3882 17.7293C87.7954 17.9985 88.1674 18.3182 88.4955 18.6809Z" fill="#B6D3F9"/>
<path d="M84.8554 22.7874C82.6039 22.3221 80.9961 24.2624 80.9961 24.2624C80.9961 24.2624 83.2337 26.3051 83.7297 27.1822C84.2256 28.0593 85.0491 31.0164 85.0491 31.0164C85.9926 31.1699 87.732 30.1881 88.1495 27.5824C88.567 24.9767 87.0953 23.2504 84.8554 22.7874Z" fill="#B6D3F9"/>
<path d="M97.447 84.8666C97.447 84.8666 84.5289 60.0563 83.687 58.2904C82.845 56.5246 80.0099 52.8254 80.0099 52.8254C80.0099 52.8254 77.0918 51.141 75.7562 48.2072C74.4205 45.2734 72.9511 34.7784 72.9511 34.7784C72.9511 34.7784 69.1149 33.322 68.1991 32.6845C67.2833 32.047 66.4482 26.1562 66.4482 25.4838C66.4482 24.8115 67.371 23.4644 67.371 23.4644C67.371 23.4644 67.0388 21.8707 69.6224 20.6911C69.6224 20.6911 69.4563 18.2506 70.7896 17.7341C71.8139 17.3363 75.1726 16.8221 75.1726 16.8221C75.6474 16.4013 76.2001 16.0795 76.7989 15.8752C77.6316 15.6425 83.7193 17.2409 83.7193 17.2409C83.7193 17.2409 86.8057 17.3828 87.3894 17.7341C87.8162 18.0181 88.2047 18.3567 88.5451 18.7415C88.5451 18.7415 91.2971 19.3185 91.8807 20.3352C92.4643 21.3519 92.7135 26.3958 92.2982 29.6739C91.883 32.952 92.6281 38.5148 92.6281 38.5148C92.6281 38.5148 93.4886 42.8119 94.1552 44.4428C94.8219 46.0737 106.999 59.0233 106.999 59.0233" stroke="#263238" stroke-linecap="round" stroke-linejoin="round"/>
<path d="M86.5108 34.4365C86.5108 34.4365 85.9272 34.3108 85.1775 31.5352C84.4278 28.7597 84.2294 27.4615 82.6746 25.8166C81.572 24.6533 79.0483 22.7525 77.798 21.324C76.5477 19.8955 75.166 18.7416 74.0864 19.6257C73.2236 20.3236 72.6608 22.136 73.4197 24.9325C74.3955 28.5247 77.4728 30.2347 77.4728 30.2347L78.2248 34.7529C78.2248 34.7529 74.9607 41.3463 78.64 47.5698" stroke="#263238" stroke-linecap="round" stroke-linejoin="round"/>
<path d="M80.9844 24.2623C80.9844 24.2623 82.5991 22.3243 84.8437 22.7873C87.0882 23.2503 88.5461 24.9742 88.1378 27.5823C87.7295 30.1904 85.9809 31.1698 85.0374 31.0163" stroke="#263238" stroke-linecap="round" stroke-linejoin="round"/>
<path d="M75.1657 16.8174C74.8286 17.6721 74.5692 18.556 74.3906 19.458" stroke="#263238" stroke-linecap="round" stroke-linejoin="round"/>
<path d="M73.8008 25.9282C73.8008 25.9282 73.9946 28.8015 74.3959 29.6833C74.7973 30.565 75.464 31.2816 75.7546 32.417C76.0453 33.5523 76.0891 35.3182 76.1722 35.5718C76.2552 35.8253 76.7373 35.8905 76.7373 35.8905C77.4294 35.9068 77.7085 35.5438 78.1076 34.9901" stroke="#263238" stroke-linecap="round" stroke-linejoin="round"/>
<path d="M69.6289 20.6865C69.6289 20.6865 70.2541 26.8239 70.7546 29.432C71.2552 32.0401 72.1387 32.417 73.5897 33.2592C75.0407 34.1014 75.8411 35.8184 75.968 36.0766C76.0949 36.3349 76.5701 36.3628 76.5701 36.3628C76.8493 36.3394 77.1183 36.246 77.3528 36.0912C77.5872 35.9364 77.7796 35.7251 77.9126 35.4764" stroke="#263238" stroke-linecap="round" stroke-linejoin="round"/>
<path d="M67.374 23.4595C67.2171 23.7038 68.5551 29.9366 69.2517 31.7443C69.9484 33.552 70.0268 33.8382 71.87 34.35C73.7131 34.8619 75.1133 35.7134 75.6116 35.4133" stroke="#263238" stroke-linecap="round" stroke-linejoin="round"/>
<path d="M80.1738 20.0117C80.1738 20.0117 81.1312 22.3243 80.4991 23.8459" stroke="#263238" stroke-linecap="round" stroke-linejoin="round"/>
<path d="M83.7168 17.2363C85.2856 17.8619 86.8998 18.3651 88.5449 18.7416" stroke="#263238" stroke-linecap="round" stroke-linejoin="round"/>
<path d="M90.0564 25.228C90.0564 25.228 89.3228 26.5797 88.2109 26.8706" stroke="#263238" stroke-linecap="round" stroke-linejoin="round"/>
<path d="M88.2081 23.7554C88.2081 23.7554 87.9451 24.4533 87.666 24.6464" stroke="#263238" stroke-linecap="round" stroke-linejoin="round"/>
<path d="M89.132 29.3062C89.132 29.3062 87.4642 30.5788 85.8633 30.9091" stroke="#263238" stroke-linecap="round" stroke-linejoin="round"/>
<path d="M85.1777 31.5376C85.1777 31.5376 85.8698 32.4194 87.6668 32.5031" stroke="#263238" stroke-linecap="round" stroke-linejoin="round"/>
<path d="M79.7793 27.6776C79.7793 27.6776 81.4125 26.0955 82.3445 26.3142" stroke="#263238" stroke-linecap="round" stroke-linejoin="round"/>
<path d="M82.9772 27.999C82.9772 27.999 81.7407 28.9296 81.5146 28.9296" stroke="#263238" stroke-linecap="round" stroke-linejoin="round"/>
<path d="M70.2461 32.9337C70.2461 32.9337 70.6567 33.0105 70.9773 32.5103" stroke="#263238" stroke-linecap="round" stroke-linejoin="round"/>
<path d="M71.7061 30.6672C71.7061 30.6672 72.698 30.0483 73.3462 29.9297" stroke="#263238" stroke-linecap="round" stroke-linejoin="round"/>
<path d="M80.4434 51.6525C80.6487 51.4687 82.5656 49.9053 83.7513 49.3516" stroke="#263238" stroke-linecap="round" stroke-linejoin="round"/>
<path d="M82.9302 50.9127C82.7941 50.8709 81.7053 52.0202 81.1309 52.4808" stroke="#263238" stroke-linecap="round" stroke-linejoin="round"/>
<path d="M94.165 44.4521C94.4742 46.1668 95.4776 47.4301 96.0266 48.1141" stroke="#263238" stroke-linecap="round" stroke-linejoin="round"/>
<path opacity="0.4" d="M82.6536 23.4594C82.1231 23.7897 82.6813 24.8692 82.9766 25.4206C83.2718 25.972 84.5913 26.8491 84.8658 27.6774C85.1404 28.5056 86.8751 28.4824 87.4033 27.6774C87.9316 26.8724 87.8647 25.2648 86.4252 24.041C84.9858 22.8172 83.4079 22.994 82.6536 23.4594Z" fill="white"/>
</svg>
