<svg width="19" height="19" viewBox="0 0 19 19" fill="none" xmlns="http://www.w3.org/2000/svg">
<path d="M17.71 16.8881L14.31 13.5688C15.407 12.2003 16.0022 10.5105 16 8.77084C16 7.22155 15.5308 5.70705 14.6518 4.41887C13.7727 3.13068 12.5233 2.12667 11.0615 1.53378C9.59965 0.940894 7.99112 0.785768 6.43927 1.08802C4.88743 1.39027 3.46196 2.13632 2.34314 3.23183C1.22432 4.32734 0.462395 5.72311 0.153714 7.24263C-0.154968 8.76215 0.00345862 10.3372 0.60896 11.7685C1.21446 13.1999 2.23984 14.4233 3.55543 15.284C4.87103 16.1448 6.41775 16.6042 8 16.6042C9.77665 16.6063 11.5025 16.0235 12.9 14.9494L16.29 18.2785C16.383 18.3703 16.4936 18.4432 16.6154 18.4929C16.7373 18.5426 16.868 18.5682 17 18.5682C17.132 18.5682 17.2627 18.5426 17.3846 18.4929C17.5064 18.4432 17.617 18.3703 17.71 18.2785C17.8037 18.1875 17.8781 18.0792 17.9289 17.9599C17.9797 17.8406 18.0058 17.7126 18.0058 17.5833C18.0058 17.4541 17.9797 17.3261 17.9289 17.2068C17.8781 17.0875 17.8037 16.9792 17.71 16.8881ZM2 8.77084C2 7.60887 2.35189 6.473 3.01118 5.50686C3.67047 4.54072 4.60754 3.78771 5.7039 3.34304C6.80025 2.89838 8.00665 2.78203 9.17054 3.00872C10.3344 3.23541 11.4035 3.79495 12.2426 4.61658C13.0818 5.43822 13.6532 6.48504 13.8847 7.62468C14.1162 8.76432 13.9974 9.94559 13.5433 11.0191C13.0891 12.0926 12.3201 13.0102 11.3334 13.6557C10.3467 14.3013 9.18668 14.6458 8 14.6458C6.4087 14.6458 4.88257 14.0269 3.75736 12.9251C2.63214 11.8233 2 10.329 2 8.77084Z" fill="gray"/>
</svg>
