<svg width="22" height="27" viewBox="0 0 22 27" fill="none" xmlns="http://www.w3.org/2000/svg">
<path d="M11 26.3335C12.4667 26.3335 13.6667 25.1335 13.6667 23.6668H8.33337C8.33337 24.3741 8.61433 25.0524 9.11442 25.5524C9.61452 26.0525 10.2928 26.3335 11 26.3335ZM19 18.3335V11.6668C19 7.5735 16.8134 4.14683 13 3.24016V2.3335C13 1.22683 12.1067 0.333496 11 0.333496C9.89338 0.333496 9.00004 1.22683 9.00004 2.3335V3.24016C5.17337 4.14683 3.00004 7.56016 3.00004 11.6668V18.3335L0.333374 21.0002V22.3335H21.6667V21.0002L19 18.3335Z" fill="#6B778C"/>
</svg>
