<svg width="16" height="16" viewBox="0 0 16 16" fill="none" xmlns="http://www.w3.org/2000/svg">
<rect width="16" height="16" fill="white" fill-opacity="0.01"/>
<path fillRule="evenodd" clipRule="evenodd" d="M2.68147 12.8203C2.6594 12.9283 2.66445 13.0401 2.69617 13.1457C2.72789 13.2512 2.78529 13.3473 2.86323 13.4252C2.94117 13.5032 3.03723 13.5606 3.14279 13.5923C3.24836 13.624 3.36014 13.6291 3.46814 13.607L6.00814 13.087L3.20147 10.2803L2.68147 12.8203ZM6.62881 11.0737L5.21547 9.66033L10.8721 4.00033H10.8735L12.2875 5.41433L6.62814 11.0743L6.62881 11.0737ZM13.2308 4.47166L11.8175 3.05699C11.6935 2.93305 11.5464 2.83479 11.3844 2.76787C11.2224 2.70094 11.0487 2.66666 10.8735 2.66699C10.5321 2.66699 10.1908 2.79699 9.93014 3.05699L3.42547 9.56233L6.72547 12.8623L13.2301 6.35699C13.4801 6.10696 13.6205 5.76788 13.6205 5.41433C13.6205 5.06078 13.4801 4.7217 13.2301 4.47166H13.2308Z" fill="white"/>
</svg>
