<svg width="12" height="16" viewBox="0 0 12 16" fill="none" xmlns="http://www.w3.org/2000/svg">
<path d="M11.9023 3.431L8.569 0.0976562C8.5065 0.0351562 8.42188 0 8.33331 0H1.33331C0.598312 0 0 0.597969 0 1.33334V14.6667C0 15.402 0.598312 16 1.33334 16H10.6667C11.4017 16 12 15.402 12 14.6667V3.66666C12 3.57812 11.9648 3.4935 11.9023 3.431ZM8.66666 1.13803L10.862 3.33334H9.33331C8.96547 3.33334 8.66666 3.03419 8.66666 2.66669V1.13803ZM11.3333 14.6667C11.3333 15.0342 11.0345 15.3333 10.6667 15.3333H1.33334C0.9655 15.3333 0.666687 15.0342 0.666687 14.6667V1.33334C0.666687 0.965844 0.965531 0.666687 1.33334 0.666687H8V2.66669C8 3.40203 8.59831 4 9.33334 4H11.3333V14.6667Z" fill="#B7BCC2"/>
<path d="M9.66666 9.33337H2.33334C2.14909 9.33337 2 9.48247 2 9.66672C2 9.85097 2.14909 10.0001 2.33334 10.0001H9.66669C9.85094 10.0001 10 9.85097 10 9.66672C10 9.48247 9.85091 9.33337 9.66666 9.33337Z" fill="#B7BCC2"/>
<path d="M9.66666 7.33337H2.33334C2.14909 7.33337 2 7.48247 2 7.66672C2 7.85097 2.14909 8.00007 2.33334 8.00007H9.66669C9.85094 8.00007 10 7.85097 10 7.66672C10 7.48247 9.85091 7.33337 9.66666 7.33337Z" fill="#B7BCC2"/>
<path d="M9.66666 11.3334H2.33334C2.14909 11.3334 2 11.4825 2 11.6667C2 11.851 2.14909 12.0001 2.33334 12.0001H9.66669C9.85094 12.0001 10 11.851 10 11.6667C10 11.4825 9.85091 11.3334 9.66666 11.3334Z" fill="#B7BCC2"/>
<path d="M6.33334 13.3334H2.33334C2.14909 13.3334 2 13.4825 2 13.6667C2 13.851 2.14909 14.0001 2.33334 14.0001H6.33334C6.51759 14.0001 6.66669 13.851 6.66669 13.6667C6.66666 13.4825 6.51759 13.3334 6.33334 13.3334Z" fill="#B7BCC2"/>
<path d="M5.3335 5.6666C5.3335 5.85085 5.48259 5.99994 5.66684 5.99994H9.66685C9.8511 5.99994 10.0002 5.85085 10.0002 5.6666C10.0002 5.48235 9.8511 5.33325 9.66685 5.33325H5.66684C5.48259 5.33328 5.3335 5.48238 5.3335 5.6666Z" fill="#B7BCC2"/>
<path d="M3 5.33331H2.33334C2.14909 5.33331 2 5.48241 2 5.66666C2 5.85091 2.14909 6 2.33334 6H2.66669C2.66669 6.18425 2.81578 6.33335 3.00003 6.33335C3.18428 6.33335 3.33337 6.18425 3.33337 6V5.9386C3.7205 5.8005 4 5.43397 4 4.99997C4 4.44853 3.55144 3.99997 3 3.99997C2.81641 3.99997 2.66666 3.85056 2.66666 3.66663C2.66666 3.48272 2.81641 3.33328 3 3.33328H3.66666C3.85091 3.33328 4 3.18419 4 2.99994C4 2.81569 3.85091 2.6666 3.66666 2.6666H3.33331C3.33331 2.48235 3.18422 2.33325 2.99997 2.33325C2.81572 2.33325 2.66663 2.48235 2.66663 2.6666V2.728C2.2795 2.8661 2 3.23263 2 3.66663C2 4.21806 2.44856 4.66663 3 4.66663C3.18359 4.66663 3.33334 4.81603 3.33334 4.99997C3.33334 5.18391 3.18359 5.33331 3 5.33331Z" fill="#B7BCC2"/>
</svg>
