<svg width="14" height="14" viewBox="0 0 14 14" fill="none" xmlns="http://www.w3.org/2000/svg">
<path d="M6.99967 0.333496C3.31967 0.333496 0.333008 3.32016 0.333008 7.00016C0.333008 10.6802 3.31967 13.6668 6.99967 13.6668C10.6797 13.6668 13.6663 10.6802 13.6663 7.00016C13.6663 3.32016 10.6797 0.333496 6.99967 0.333496ZM6.99967 12.3335C4.05301 12.3335 1.66634 9.94683 1.66634 7.00016C1.66634 5.76683 2.08634 4.6335 2.79301 3.7335L10.2663 11.2068C9.36634 11.9135 8.23301 12.3335 6.99967 12.3335ZM11.2063 10.2668L3.73301 2.7935C4.63301 2.08683 5.76634 1.66683 6.99967 1.66683C9.94634 1.66683 12.333 4.0535 12.333 7.00016C12.333 8.2335 11.913 9.36683 11.2063 10.2668Z" fill="#B7BCC2"/>
</svg>
