<svg width="91" height="26" viewBox="0 0 91 26" fill="none" xmlns="http://www.w3.org/2000/svg">
<path d="M9.92 0.399999C11.6933 0.399999 13.2333 0.698665 14.54 1.296C15.8467 1.87467 16.8547 2.71467 17.564 3.816C18.2733 4.89867 18.628 6.17733 18.628 7.652C18.628 9.12667 18.2733 10.4053 17.564 11.488C16.8547 12.5707 15.8467 13.4107 14.54 14.008C13.2333 14.5867 11.6933 14.876 9.92 14.876H6.504V20H0.96V0.399999H9.92ZM9.584 10.508C10.7227 10.508 11.5813 10.2653 12.16 9.78C12.7387 9.276 13.028 8.56667 13.028 7.652C13.028 6.73733 12.7387 6.028 12.16 5.524C11.5813 5.02 10.7227 4.768 9.584 4.768H6.504V10.508H9.584ZM26.2904 4.572C28.8104 4.572 30.733 5.15067 32.0584 6.308C33.3837 7.44667 34.0464 9.20133 34.0464 11.572V20H29.0904V18.04C28.325 19.5147 26.8317 20.252 24.6104 20.252C23.4344 20.252 22.417 20.0467 21.5584 19.636C20.6997 19.2253 20.0464 18.6747 19.5984 17.984C19.169 17.2747 18.9544 16.472 18.9544 15.576C18.9544 14.1387 19.505 13.028 20.6064 12.244C21.7077 11.4413 23.4064 11.04 25.7024 11.04H28.7264C28.633 9.43467 27.5597 8.632 25.5064 8.632C24.7784 8.632 24.041 8.75333 23.2944 8.996C22.5477 9.22 21.913 9.53733 21.3904 9.948L19.5984 6.336C20.4384 5.776 21.4557 5.34667 22.6504 5.048C23.8637 4.73067 25.077 4.572 26.2904 4.572ZM26.0944 16.892C26.7104 16.892 27.2517 16.7427 27.7184 16.444C28.185 16.1453 28.521 15.7067 28.7264 15.128V13.812H26.4304C24.881 13.812 24.1064 14.3253 24.1064 15.352C24.1064 15.8187 24.2837 16.192 24.6384 16.472C24.993 16.752 25.4784 16.892 26.0944 16.892ZM51.999 4.824L45.447 20.616C44.6816 22.4827 43.7483 23.7893 42.647 24.536C41.5456 25.3013 40.2016 25.684 38.615 25.684C37.8123 25.684 37.0003 25.5533 36.179 25.292C35.3763 25.0493 34.723 24.7227 34.219 24.312L36.067 20.588C36.3656 20.868 36.7203 21.0827 37.131 21.232C37.5603 21.4 37.9896 21.484 38.419 21.484C38.923 21.484 39.3336 21.3813 39.651 21.176C39.987 20.9707 40.267 20.644 40.491 20.196L33.995 4.824H39.455L43.179 14.092L46.931 4.824H51.999Z" fill="white"/>
<path d="M61.5502 20.392C58.6382 20.392 56.3702 19.5987 54.7462 18.012C53.1409 16.4253 52.3382 14.176 52.3382 11.264V0.399999H57.8823V11.096C57.8823 14.232 59.1236 15.8 61.6062 15.8C64.0702 15.8 65.3022 14.232 65.3022 11.096V0.399999H70.7623V11.264C70.7623 14.176 69.9503 16.4253 68.3263 18.012C66.7209 19.5987 64.4622 20.392 61.5502 20.392ZM82.694 4.572C84.0753 4.572 85.326 4.89867 86.446 5.552C87.5846 6.18667 88.4806 7.10133 89.134 8.296C89.806 9.472 90.142 10.844 90.142 12.412C90.142 13.98 89.806 15.3613 89.134 16.556C88.4806 17.732 87.5846 18.6467 86.446 19.3C85.326 19.9347 84.0753 20.252 82.694 20.252C80.9206 20.252 79.5113 19.72 78.466 18.656V25.432H73.146V4.824H78.214V6.336C79.2033 5.16 80.6966 4.572 82.694 4.572ZM81.574 16.024C82.5073 16.024 83.2726 15.7067 83.87 15.072C84.4673 14.4187 84.766 13.532 84.766 12.412C84.766 11.292 84.4673 10.4147 83.87 9.78C83.2726 9.12667 82.5073 8.8 81.574 8.8C80.6406 8.8 79.8753 9.12667 79.278 9.78C78.6806 10.4147 78.382 11.292 78.382 12.412C78.382 13.532 78.6806 14.4187 79.278 15.072C79.8753 15.7067 80.6406 16.024 81.574 16.024Z" fill="#E7C91D"/>
</svg>
