<svg width="14" height="12" viewBox="0 0 14 12" fill="none" xmlns="http://www.w3.org/2000/svg">
<path d="M11.6663 3.33333H2.33301C1.22634 3.33333 0.333008 4.22667 0.333008 5.33333V9.33333H2.99967V12H10.9997V9.33333H13.6663V5.33333C13.6663 4.22667 12.773 3.33333 11.6663 3.33333ZM9.66634 10.6667H4.33301V7.33333H9.66634V10.6667ZM11.6663 6C11.2997 6 10.9997 5.7 10.9997 5.33333C10.9997 4.96667 11.2997 4.66667 11.6663 4.66667C12.033 4.66667 12.333 4.96667 12.333 5.33333C12.333 5.7 12.033 6 11.6663 6ZM10.9997 0H2.99967V2.66667H10.9997V0Z" fill="#B7BCC2"/>
</svg>
