<svg width="13" height="15" viewBox="0 0 13 15" fill="none" xmlns="http://www.w3.org/2000/svg">
<path d="M8.5 0.666672H4.5V2.00001H8.5V0.666672ZM5.83333 9.33334H7.16667V5.33334H5.83333V9.33334ZM11.1867 4.92667L12.1333 3.98001C11.8467 3.64001 11.5333 3.32001 11.1933 3.04001L10.2467 3.98667C9.21333 3.16001 7.91333 2.66667 6.5 2.66667C3.18667 2.66667 0.5 5.35334 0.5 8.66667C0.5 11.98 3.18 14.6667 6.5 14.6667C9.82 14.6667 12.5 11.98 12.5 8.66667C12.5 7.25334 12.0067 5.95334 11.1867 4.92667ZM6.5 13.3333C3.92 13.3333 1.83333 11.2467 1.83333 8.66667C1.83333 6.08667 3.92 4.00001 6.5 4.00001C9.08 4.00001 11.1667 6.08667 11.1667 8.66667C11.1667 11.2467 9.08 13.3333 6.5 13.3333Z" fill="#2684FF"/>
</svg>
