<svg width="20" height="20" viewBox="0 0 20 20" fill="none" xmlns="http://www.w3.org/2000/svg">
<path d="M8.90923 13.8434L9.08602 14.0202L9.26279 13.8433L15.7436 7.3616L15.9204 7.18482L15.7436 7.00806L14.4474 5.71189L14.2707 5.5351L14.0939 5.71191L9.08599 10.7207L6.66953 8.30422L6.49275 8.12745L6.31598 8.30422L5.01981 9.60039L4.84303 9.77717L5.01981 9.95395L8.90923 13.8434ZM9.99992 18.9166C5.07524 18.9166 1.08325 14.9246 1.08325 9.99992C1.08325 5.07524 5.07524 1.08325 9.99992 1.08325C14.9246 1.08325 18.9166 5.07524 18.9166 9.99992C18.9166 14.9246 14.9246 18.9166 9.99992 18.9166Z" fill="#F8D46D" stroke="#F8D46D" stroke-width="0.5"/>
</svg>
